<svg xmlns="http://www.w3.org/2000/svg" width="1454" height="1426"><path fill="#e7e6e6" d="M803.71 25.248c6.067.735 12.14 1.407 18.218 2.055C858.648 31.293 896.026 41.46 931 53q2.968.962 5.938 1.922 4.03 1.306 8.056 2.628 2.793.915 5.586 1.825c7.237 2.409 14.21 5.15 21.174 8.244 3.353 1.427 6.735 2.643 10.183 3.818 6.717 2.362 13.105 5.224 19.504 8.324q3.804 1.84 7.613 3.666A3778 3778 0 0 1 1033 95l1.866.911c6.853 3.357 13.61 6.767 20.071 10.839 4.572 2.869 9.052 5.227 14.063 7.25v2l2.215.305c3.108.776 4.801 1.898 7.347 3.82a112 112 0 0 0 11.188 7.187c5.074 2.908 9.826 6.137 14.546 9.576 4.194 3.052 8.45 5.992 12.75 8.893 9.959 6.723 19.399 13.88 28.712 21.465 2.111 1.771 2.111 1.771 4.242 2.754v2l2.187.75c3.862 1.716 6.7 4.098 9.625 7.125 1.965 1.908 3.921 3.449 6.125 5.062 3.328 2.447 6.178 5.1 9.063 8.063l2.5 2c2.718 2.175 5.065 4.51 7.5 7 4.2 4.28 8.38 8.535 12.937 12.437 7.031 6.05 13.4 12.703 19.407 19.758 1.674 1.825 3.428 3.363 5.343 4.93 3.16 2.598 5.088 5.43 7.313 8.875a113 113 0 0 0 3.25 3.25L1238 254v2l3 1c1.754 1.926 1.754 1.926 3.562 4.312l1.817 2.364A40 40 0 0 1 1250 270h2v2h2c4 5.412 4 5.412 4 8h2c1.694 1.92 3.26 3.845 4.812 5.875l1.455 1.878C1292 321.242 1292 321.242 1292 326h2c1.445 1.933 1.445 1.933 3.125 4.652l1.877 3.018 1.998 3.267 2.047 3.314c5.075 8.244 10.06 16.537 14.896 24.923a622 622 0 0 0 2.952 5.03c14.34 24.513 27.452 50.259 37.38 76.884 2.096 5.53 4.43 10.981 6.82 16.39 3.78 8.713 6.71 17.662 9.617 26.693.846 2.628 1.702 5.253 2.56 7.878 2.852 8.783 5.522 17.564 7.831 26.506a397 397 0 0 0 2.756 9.96c16.564 58.422 23.075 120.034 23.266 180.61l.014 3.814-.006 3.506-.004 3.11C1411 728 1411 728 1410 730c.004 1.818.017 3.636.066 5.453 1.292 52.764-9.575 109.119-24.199 159.532a386 386 0 0 0-2.242 8.163c-6.58 24.583-14.996 49.123-25.495 72.302-2.69 6.072-5.163 12.24-7.682 18.385-6.48 15.681-6.48 15.681-9.448 17.165-.71 1.989-.71 1.989-1.273 4.398-1.675 5.899-4.339 10.913-7.352 16.227l-1.605 2.885c-1.581 2.835-3.174 5.663-4.77 8.49q-1.326 2.368-2.648 4.738A1937 1937 0 0 1 1317 1059l-1.066 1.958c-2.72 4.935-2.72 4.935-4.934 6.042-.656 2.527-.656 2.527-1 5h-2l-.77 2.113c-3.581 8.403-9.287 16.127-14.566 23.54-3.321 4.685-6.564 9.422-9.414 14.41L1282 1114h-2c-1.206 2.332-2.165 4.496-3 7a716 716 0 0 1-3.422 3.3c-2.804 3.02-5.075 6.445-7.465 9.794-2.63 3.616-5.418 7.083-8.234 10.554a198 198 0 0 0-5.067 6.664c-2.363 3.188-4.966 5.915-7.812 8.688l-2.5 3c-2.373 2.847-4.879 5.383-7.5 8a799 799 0 0 0-5.563 6l-1.572 1.707a2526 2526 0 0 0-7.892 8.61c-6.798 7.432-13.801 14.612-20.973 21.683l-1.598 1.625c-2.318 2.273-4.807 4.347-7.27 6.46a104 104 0 0 0-4.546 4.36c-3.412 3.371-7.121 6.285-10.867 9.274-3.48 2.92-6.608 6.101-9.719 9.406-2 1.875-2 1.875-4.363 3.25-2.637 1.625-4.601 3.353-6.825 5.5-5.563 5.132-11.636 9.444-17.83 13.783l-2.298 1.62-2.077 1.444c-1.746 1.204-1.746 1.204-2.607 3.278h-3v2c-6.625 3.875-6.625 3.875-10 5v2c-4.385 3-4.385 3-7 3v2h-3v2l-2.75 1.5c-4.597 2.612-8.925 5.612-13.285 8.598-2.965 1.902-2.965 1.902-6.211 3.523-2.813 1.227-2.813 1.227-4.754 3.379-7.966 5.041-16.371 9.429-24.643 13.942-4.596 2.514-9.128 5.091-13.607 7.808-5.029 2.978-10.215 5.28-15.592 7.54-5.63 2.394-10.976 5.185-16.286 8.221-3.342 1.867-4.929 2.489-8.872 2.489l-1 2c-1.688.824-1.688.824-4 1.687-5.628 2.158-11.193 4.448-16.758 6.763-7.452 3.084-15.001 5.836-22.617 8.487-4.76 1.662-9.472 3.366-14.125 5.313-5.314 2.18-10.73 3.75-16.5 3.75l-1 2c-2.5.878-4.959 1.64-7.508 2.348l-2.3.657q-2.416.687-4.837 1.363c-2.452.687-4.9 1.386-7.347 2.087q-2.351.666-4.703 1.33l-2.201.628c-4.354 1.21-8.615 1.996-13.104 2.587a441 441 0 0 0-7 2c-2.622.612-5.24 1.198-7.875 1.75l-2.386.5c-7.737 1.59-15.498 3.048-23.266 4.477q-2.122.39-4.245.786c-16.524 3.068-33.09 4.845-49.825 6.292-2.938.255-5.874.519-8.811.783-19.398 1.712-38.805 2.631-58.28 2.6l-2.353-.003c-43.001-.11-86.843-3.35-128.959-12.185l-3.59-.74a1448 1448 0 0 1-21.427-4.597q-3.78-.838-7.569-1.651c-12.24-2.693-24.194-6.413-36.183-10.042a729 729 0 0 0-8.672-2.54c-10.483-3.024-20.636-6.606-30.79-10.598-3.893-1.524-7.823-2.872-11.797-4.173-4.068-1.36-7.982-3.086-11.92-4.778q-2.29-.982-4.58-1.957c-10.28-4.38-20.516-8.782-30.462-13.88-4.652-2.383-9.355-4.636-14.088-6.856-6.943-3.259-13.775-6.48-20.276-10.566a184 184 0 0 0-7.681-4.43l-2.775-1.526-2.815-1.541-2.774-1.52q-3.3-1.805-6.601-3.605v-2c-2.974-1.24-5.853-2.3-9-3v-2h-3v-2l-2.074-.75c-3.434-1.467-6.566-3.298-9.739-5.25l-1.81-1.078c-1.496-.916-2.942-1.913-4.377-2.922v-2l-1.75-.355c-5.728-1.641-10.123-5.518-14.25-9.645l-3-1.5c-3.07-1.535-4.614-3.08-7-5.5a153 153 0 0 0-4.484-3.46l-2.586-1.93-2.68-1.985-2.633-1.96c-4.94-3.682-4.94-3.682-9.9-7.338-3.512-2.59-6.675-5.185-9.717-8.327-2.26-1.787-4.565-3.502-6.879-5.219-2.121-1.781-2.121-1.781-3.71-3.937-1.364-2.14-1.364-2.14-4.411-2.844-1.688-1.438-1.688-1.438-3-3v-2l-1.68-.684c-3.005-1.705-5.05-3.894-7.445-6.379-3.116-3.402-3.116-3.402-6.875-5.937v-2h-2l-1.625-2.063c-2.577-3.186-5.396-5.66-8.496-8.32-3.433-2.954-6.373-6.187-9.317-9.617-2.64-3.047-5.327-5.574-8.562-8-1.82-1.618-2.87-2.713-3.875-4.938-1.5-2.751-3.688-4.138-6.125-6.062v-2h-2a235 235 0 0 1-3.656-5.148c-1.395-2.024-1.395-2.024-3.657-4.165-3.916-3.916-7.47-8.176-10.687-12.687v-2h-2a154 154 0 0 1-5.375-7q-1.612-2.191-3.227-4.383l-1.684-2.298a558 558 0 0 0-5.175-6.874l-1.67-2.195q-1.6-2.101-3.21-4.195C157 1113.224 157 1113.224 157 1111h-2l-1-3-2-2a426 426 0 0 1-4-6l-2.14-3.14-2.11-3.11-2.14-3.14C140 1088 140 1088 140 1086h-2l-1.137-2.16c-2.378-4.452-4.703-8.797-7.738-12.84-2.125-3-2.125-3-2.125-6h-2l-1.438-3.063c-2.54-5.128-5.55-9.97-8.564-14.832C112 1042.211 112 1042.211 112 1040l-2-2a275 275 0 0 1-3.938-7.75l-1.052-2.133q-1.027-2.08-2.045-4.166a232 232 0 0 0-2.719-5.28C99 1016 99 1016 99 1013l-2-1a129 129 0 0 1-3.25-6.75l-1.895-4.16-.951-2.106c-.788-1.73-1.6-3.45-2.416-5.168-4.23-8.912-7.833-18.05-11.444-27.224-1.107-2.747-2.275-5.464-3.442-8.186-2.839-6.786-5.165-13.713-7.46-20.696q-1.056-3.214-2.124-6.423c-6.316-19.054-11.798-38.262-16.706-57.725l-.901-3.552c-1.518-6.076-2.872-12.133-3.94-18.304a392 392 0 0 0-1.584-8.42C32.973 802.534 28.637 761.496 28 720l-.066-3.648c-.696-42.391 3.581-84.358 10.968-126.058a576 576 0 0 0 1.81-10.776c1.485-9.387 3.34-18.576 5.713-27.779.516-2.002 1.022-4.007 1.526-6.012 1.927-7.617 4.018-15.178 6.203-22.725.945-3.353 1.725-6.725 2.471-10.127 2.7-11.484 7.136-22.481 11.181-33.54a409 409 0 0 0 3.358-9.823c3.128-9.485 7.223-18.49 11.504-27.504 1.365-2.943 1.365-2.943 2.257-5.858 1.02-2.99 2.219-5.722 3.606-8.556l1.457-3.004 3.024-6.18 1.457-3.004 1.326-2.709c1.27-2.717 1.27-2.717 2.202-5.742.952-2.805 2.077-5.098 3.577-7.643l1.513-2.596 1.6-2.716c4.211-7.237 8.127-14.496 11.778-22.031 1.884-3.645 4.074-6.97 6.469-10.297 1.245-1.623 1.245-1.623 1.066-3.672l2-2 1-3h2l.781-2.152c1.306-3.05 2.9-5.639 4.719-8.41 2.02-3.085 3.93-6.1 5.5-9.438h2l.312-1.688c.83-2.789 2.031-4.926 3.688-7.312h2l.687-2.063c1.399-3.129 3.124-5.576 5.192-8.289 1.312-1.769 1.312-1.769 2.121-4.648a262 262 0 0 1 4-4q1.859-2.435 3.625-4.938a551 551 0 0 1 9.562-12.937l2.418-3.18C177.92 281.1 180.4 278.58 183 276l1.5-2.5c1.8-2.998 4-5.057 6.5-7.5a209 209 0 0 0 3.25-3.625l1.516-1.727c1.441-1.744 1.441-1.744 2.234-4.648 1.418-1.324 1.418-1.324 3.187-2.688 3.517-2.872 5.998-6.037 8.551-9.773L211 242h2v-2a134 134 0 0 1 5-5q1.755-1.745 3.5-3.5L240 213l2.094-2.121c1.73-1.705 3.498-3.3 5.343-4.879 4.398-3.81 8.657-7.762 12.907-11.736 2.44-2.271 4.87-4.433 7.488-6.502 2.249-1.58 2.249-1.58 3.168-3.762a393 393 0 0 1 5-3c2.286-1.741 4.468-3.468 6.5-5.5 2.023-2.023 4.26-3.72 6.5-5.5l2.148-1.754c11.3-9.179 23.173-17.55 35.196-25.746a598 598 0 0 0 8.968-6.25c5.121-3.593 10.383-6.938 15.688-10.25l3.516-2.219 3.546-2.219 3.286-2.058C364 118 364 118 366 118v-2l2.027-.96c10.181-4.948 19.958-10.63 29.54-16.653 2.388-1.361 4.818-2.423 7.354-3.476 4.49-1.967 8.832-4.259 13.204-6.474q2.91-1.473 5.82-2.94l2.579-1.308C428.982 83.01 431.464 82 434 81q2.685-1.183 5.36-2.39c10.044-4.502 20.023-8.973 30.466-12.472 4.546-1.53 8.971-3.256 13.402-5.093 9.387-3.89 18.789-6.935 28.588-9.604 5.846-1.596 11.605-3.439 17.354-5.35 5.29-1.72 10.624-3.022 16.05-4.24 3.524-.793 7.041-1.61 10.557-2.437q4.965-1.166 9.932-2.32 2.53-.592 5.06-1.187c14.93-3.514 29.86-6.546 45.106-8.345l2.991-.359q3.278-.391 6.557-.776c3.173-.379 6.344-.773 9.514-1.173 56.287-7.072 112.475-6.836 168.772-.006M648.311 138.75l-3.7.513C611.834 143.943 579.54 150.826 548 161l-3.659 1.167c-17.274 5.525-34.22 11.444-50.843 18.741a437 437 0 0 1-6.857 2.92c-8.929 3.754-17.45 8.13-25.985 12.703a314 314 0 0 1-10.597 5.4c-16.133 7.889-31.32 17.295-46.221 27.293-2.464 1.652-4.936 3.29-7.408 4.928-10.166 6.77-19.956 13.905-29.57 21.436-1.91 1.45-3.867 2.806-5.843 4.162L358 262v2l-1.586.652c-3.37 1.882-6.147 4.381-9.039 6.91l-1.886 1.635A888 888 0 0 0 330 287l-2.578 2.297c-6.779 6.097-13.278 12.453-19.735 18.89l-2.57 2.556c-4.346 4.358-8.544 8.782-12.555 13.45-2.287 2.646-4.676 5.187-7.062 7.744-8.248 7.687-8.248 7.687-12.5 17.063h-2a97 97 0 0 0-4.438 5.562l-1.34 1.78a929 929 0 0 0-2.813 3.764 962 962 0 0 1-4.022 5.359c-7.333 9.79-14.114 19.935-20.825 30.158q-1.972 2.999-3.96 5.986c-16.933 25.809-32.372 53.523-43.723 82.268-.991 2.394-2.08 4.732-3.176 7.08-3.441 7.524-6.379 15.23-9.266 22.98-.3.808-.601 1.615-.912 2.447-5.09 13.768-9.33 27.696-13.15 41.866l-.744 2.755c-5.162 19.237-9.241 38.42-12.194 58.12-.15.999-.302 1.998-.458 3.027-2.65 17.58-4.69 35.115-5.979 52.848l-.21 2.63c-2.735 34.743-.647 69.92 3.647 104.432l.313 2.525c1.214 9.67 2.679 19.239 4.586 28.798.472 2.57.86 5.072 1.163 7.662.455 3.587 1.101 7.004 1.919 10.523l.853 3.682.916 3.873.473 2.006c5.395 22.866 11.545 45.473 20.395 67.275.92 2.526 1.494 4.947 1.945 7.594h2l-1 3c.564 1.926.564 1.926 1.598 3.95l1.137 2.415L185 928q1.314 2.852 2.621 5.707 2.109 4.576 4.225 9.147c2.349 5.1 4.61 10.214 6.728 15.416a105 105 0 0 0 6.801 13.605c2.791 4.824 5.413 9.652 7.812 14.687 6.391 13.022 14.321 25.445 22.5 37.41 1.4 2.162 2.615 4.375 3.813 6.653 2.015 3.742 4.364 6.771 7.266 9.867C248 1042 248 1042 249 1045h2l.25 1.687c.993 3.063 2.656 4.87 4.75 7.313 3.434 4.087 6.746 8.22 9.937 12.5l2.215 2.969A158 158 0 0 1 272 1075h2l.781 1.715c4.16 7.801 11.016 14.36 16.965 20.808a117 117 0 0 1 5.004 5.852c2.05 2.391 4.186 4.254 6.645 6.207 2.587 2.285 4.719 4.953 6.953 7.578 1.687 1.98 1.687 1.98 4.152 3.84 2.3 1.84 3.978 3.64 5.875 5.875 3.202 3.742 6.566 7.298 10.625 10.125h2v2h2l.64 1.684c1.828 3.113 4.351 5.125 7.11 7.378l1.749 1.452c17.764 14.663 36.196 28.915 55.501 41.486l1.805 1.184c8.843 5.797 17.75 11.448 26.851 16.832 1.99 1.18 3.972 2.374 5.938 3.593 6.915 4.288 14.151 7.844 21.448 11.424 2.791 1.379 5.56 2.803 8.333 4.217 6.921 3.457 13.923 6.737 20.937 10l3.363 1.575c5.236 2.421 10.393 4.634 15.895 6.36 3.05 1.023 6.015 2.215 9 3.417 24.906 9.996 50.183 17.688 76.43 23.398l3.189.706c27.002 5.939 54.178 10.716 81.811 12.294l2.758.17c16.253.967 32.529.932 48.804.955l3.302.008q4.727.007 9.452 0l2.858.006c4.996-.017 9.863-.264 14.82-.908 2.807-.323 5.607-.389 8.431-.47 23.697-.749 46.998-5.434 70.173-10.106a309 309 0 0 1 9.867-1.71A91 91 0 0 0 858 1271q3.174-.907 6.352-1.805l7.273-2.07 3.621-1.027c16.736-4.769 33.354-9.773 49.469-16.368a473 473 0 0 1 9.851-3.867c10.803-4.135 21.19-8.475 31.434-13.863 1.962-.984 3.929-1.956 5.896-2.928 8.463-4.185 16.798-8.585 25.104-13.072l2.855-1.52c13.407-7.188 26.314-15.319 39.145-23.48l1.87-1.187a749 749 0 0 0 5.13-3.313l2.937-1.906L1051 1183v-2l1.633-.754c16.214-8.535 30.52-22.083 44.523-33.718a518 518 0 0 1 3.5-2.877c3.318-2.714 6.352-5.583 9.344-8.651 2.558-2.587 5.123-5.168 7.687-7.75l2.05-2.074 1.962-1.973 1.776-1.792C1125 1120 1125 1120 1127 1119v-2h2c1.535-1.517 1.535-1.517 3.125-3.5 2.51-2.962 5.084-5.74 7.875-8.438 3.502-3.44 6.458-7.122 9.414-11.035 2-2.557 4.262-4.763 6.586-7.027a223 223 0 0 0 3.312-3.688l1.551-1.761c1.334-1.5 1.334-1.5 1.137-3.551l3-1c2.13-2.474 2.13-2.474 4.187-5.438l2.168-2.996c1.825-2.339 1.825-2.339 1.645-4.566l3-1c1.415-1.517 1.415-1.517 2.715-3.438l1.56-2.184 1.662-2.378 1.749-2.468q1.797-2.538 3.584-5.082a567 567 0 0 1 4.726-6.583c12.63-17.449 24.926-36.015 34.316-55.43a428 428 0 0 1 7.233-14.071c20.363-38.018 34.804-79.152 45.455-120.866l.684-2.672a478 478 0 0 0 11.441-61.39l.39-3.224c8.052-66.95 6.286-136.563-10.026-202.241-.507-2.044-1.004-4.09-1.5-6.138-9.026-37.008-22.311-72.148-37.989-106.835l-1.258-2.787c-6.459-14.202-13.905-27.73-21.742-41.213l-2.664-4.633c-14.718-25.466-31.76-49.573-50.336-72.367l-2.066-2.594c-4.625-5.758-9.46-11.255-14.51-16.64a225 225 0 0 1-7.37-8.227c-5.308-6.095-11.082-11.753-16.795-17.466a2020 2020 0 0 1-5.97-6.009c-6.391-6.418-12.788-12.585-19.924-18.18-2.574-2.05-5-4.224-7.428-6.447-4.816-4.373-9.813-8.431-14.937-12.437q-2.036-1.612-4.07-3.227c-9.718-7.671-19.605-14.942-29.93-21.773l-2.4-1.59c-22.704-15-46.092-28.552-70.6-40.41l-2.316-1.129c-8.689-4.225-17.33-8.347-26.434-11.605-2.742-1.068-5.333-2.248-7.988-3.508-7.933-3.637-16.191-6.343-24.45-9.133l-2.56-.869c-37.417-12.674-75.28-21.612-114.44-26.881l-3.5-.481c-21.662-2.788-43.414-3.732-65.24-3.655-3.572.011-7.144 0-10.717-.012-21.405-.014-42.831 1.023-64.043 4.023"/><path fill="#fefdfd" d="M335 326h769v770H335zm81 81v608h607c.59-34.177 1.159-68.3 1.133-102.475q-.005-10.532.002-21.064.005-17.262 0-34.523-.003-14.064-.001-28.13v-2.043l.001-8.218q.004-38.28-.005-76.559-.007-33.769 0-67.538a230317 230317 0 0 0 .004-84.66v-2.038q-.002-15.018.002-30.038.005-17.128-.003-34.257a16852 16852 0 0 1 .006-26.587c.01-29.975-.594-59.89-1.139-89.87z"/><path fill="#fefdfd" d="M718 437c3.893.534 5.304 2.144 7.75 5.125 2.617 3.074 5.222 5.84 8.313 8.438 3.518 2.964 6.464 6.196 9.394 9.738 1.629 1.932 1.629 1.932 4.543 3.699v2l1.828.8c2.276 1.258 3.34 2.354 4.922 4.387 2.22 2.706 4.513 4.995 7.188 7.25 3.483 2.954 6.382 6.15 9.32 9.637 2.275 2.515 4.796 4.606 7.457 6.7L780 496v2h2a270 270 0 0 1 3.45 4.227c1.697 1.94 3.519 3.546 5.487 5.21 2.603 2.214 4.896 4.423 7.063 7.063 2.15 2.618 4.417 4.808 7 7s4.85 4.382 7 7c2.133 2.595 4.373 4.767 6.938 6.938 3.465 2.939 6.34 6.117 9.269 9.582 2.466 2.724 5.224 5.026 8.023 7.398 2.217 1.982 3.914 4.262 5.77 6.582a186 186 0 0 0 3.75 3.25c3.795 3.233 6.98 6.78 10.234 10.547 2.56 2.798 5.367 5.195 8.262 7.637 2.211 1.974 3.947 4.224 5.754 6.566l3 2v2l1.762.734c2.645 1.496 4.106 3.187 6.05 5.516 2.448 2.842 4.847 5.438 7.75 7.813 3.313 2.71 5.97 5.78 8.727 9.042 1.616 1.79 3.265 3.271 5.149 4.77L905 621v2h2c1.516 1.574 1.516 1.574 3.25 3.688 2.18 2.575 4.294 4.9 6.938 7 2.73 2.245 4.623 4.558 6.812 7.312l2.75 2.188L929 645v2l4 2v2h2a275 275 0 0 1 3.453 4.23c1.678 1.92 3.474 3.502 5.422 5.145 3.61 3.063 6.658 6.384 9.68 10.023 1.373 1.718 1.373 1.718 3.445 2.602v2l1.8.773c2.428 1.354 3.65 2.698 5.388 4.852 3.283 3.898 6.884 7.158 10.734 10.484a45.7 45.7 0 0 1 4.953 5.266c2.035 2.78 2.035 2.78 5.125 4.625v2l1.75.688c2.816 1.642 4.33 3.707 6.25 6.312-2.847 6.557-8.642 12.275-14.187 16.688-2.256 1.854-3.86 3.467-5.688 5.687-2.195 2.655-4.497 4.897-7.125 7.125-2.583 2.192-4.85 4.382-7 7-2.725 3.317-5.796 5.978-9.062 8.75-2.377 2.146-4.33 4.51-6.356 6.98-2.415 2.702-5.164 4.975-7.945 7.29-1.749 1.401-1.749 1.401-2.637 3.48h-2l-.7 1.727c-1.63 2.848-3.62 4.518-6.112 6.648-4.16 3.633-4.16 3.633-7.813 7.75-2.015 2.439-3.92 4.28-6.312 6.313-3.195 2.717-5.836 5.566-8.489 8.8-2.352 2.633-5.025 4.84-7.742 7.086-1.924 1.65-1.924 1.65-3.445 3.883L889 817h-2l-1 3c-1.777 1.719-1.777 1.719-3.937 3.5-2.573 2.129-4.186 3.684-6.063 6.5h-2v2h-2v2c-1.574 1.516-1.574 1.516-3.687 3.25-2.56 2.169-4.652 4.157-6.813 6.75-2.664 3.196-5.54 5.734-8.73 8.387-1.993 1.686-1.993 1.686-3.77 4.613h-2l-.8 1.828c-1.258 2.276-2.354 3.34-4.388 4.922-2.683 2.202-4.953 4.469-7.187 7.125-3.207 3.784-6.754 6.948-10.5 10.188-2.453 2.236-4.496 4.655-6.594 7.218-2.325 2.61-4.999 4.777-7.66 7.035-2.086 1.797-2.086 1.797-4.371 4.684-2.623 3.148-5.455 5.614-8.57 8.254-1.801 1.63-3.296 3.286-4.805 5.183L790 916h-2l-1 3c-1.672 1.613-1.672 1.613-3.75 3.313-2.542 2.15-4.605 4.113-6.75 6.687-2.641 3.17-5.5 5.662-8.637 8.32-2.24 2.02-4 4.316-5.863 6.68h-2l-1 3a223 223 0 0 1-4.262 3.484c-1.93 1.684-3.522 3.498-5.176 5.453-2.213 2.603-4.422 4.896-7.062 7.063-2.507 2.069-4.642 4.213-6.75 6.688-3.05 3.555-6.19 7-9.437 10.375l-1.406 1.52c-1.356 1.39-1.356 1.39-3.907 3.417-3.46-.309-5.149-1.783-7.531-4.203l-1.957-1.973-2.012-2.074-2.012-2.027A138 138 0 0 1 698 964c-2.012-1.826-4.091-3.535-6.195-5.254-1.866-1.805-2.798-3.373-3.805-5.746h-2c-1.727-1.628-3.36-3.287-5-5a2685 2685 0 0 0-3.5-3.437 82 82 0 0 1-5.937-6.563c-2.687-3.145-5.582-5.675-8.723-8.348-2.24-2.011-3.961-4.303-5.84-6.652a192 192 0 0 0-3.875-3.375c-3.214-2.74-5.88-5.603-8.547-8.863-2.373-2.649-5.087-4.848-7.844-7.086C635 902 635 902 633.954 899.856c-.865-2.215-.865-2.215-3.954-2.856a146 146 0 0 1-5-5l-5.52-5.45-4.684-4.644q-1.619-1.605-3.244-3.203a1350 1350 0 0 1-4.697-4.652l-2.823-2.792C602 869 602 869 602 867l-1.691-.7c-2.922-1.645-4.91-3.71-7.246-6.112l-2.528-2.583L588 855a38741.796 38741.796 0 0 1-8.885-8.885l-2.194-2.194C534 801 534 801 531.883 798.88c-3.61-3.61-7.233-7.206-10.854-10.804a22485 22485 0 0 1-24.02-23.91q-7.255-7.236-14.526-14.457-7.04-6.991-14.061-14.003-2.677-2.668-5.362-5.33-3.748-3.717-7.477-7.452l-2.25-2.217-2.051-2.064-1.785-1.777c-1.732-2.16-2.587-4.265-3.497-6.866 3.33-4.267 6.878-7.693 11.004-11.187 2.537-2.305 4.653-4.839 6.77-7.528L465 690h2v-2c1.68-1.621 1.68-1.621 3.875-3.437 2.587-2.147 4.237-3.73 6.125-6.563h2l.695-1.723c1.645-2.87 3.67-4.566 6.18-6.715 3.47-2.977 6.29-5.985 9.125-9.562a97 97 0 0 1 3.938-3.437c2.473-2.11 4.465-4.047 6.562-6.563 2.067-2.48 3.998-4.367 6.438-6.437 3.194-2.718 5.835-5.567 8.488-8.801 2.352-2.633 5.025-4.84 7.742-7.086 1.924-1.65 1.924-1.65 3.445-3.883L533 622h2l.781-1.809c1.32-2.372 2.606-3.575 4.719-5.254 2.437-1.946 3.723-3.27 5.5-5.937h2l.766-1.793c1.38-2.467 2.798-3.744 4.984-5.52 3.424-2.876 6.261-5.891 9.023-9.402L564 591h2v-2c1.574-1.516 1.574-1.516 3.688-3.25 2.558-2.169 4.651-4.157 6.812-6.75 2.664-3.196 5.54-5.734 8.73-8.387 1.993-1.686 1.993-1.686 3.77-4.613h2l.695-1.723c1.645-2.87 3.67-4.566 6.18-6.715 3.47-2.977 6.29-5.985 9.125-9.562a97 97 0 0 1 3.938-3.437c2.577-2.19 4.833-4.353 6.937-7L620 535h2v-2c1.574-1.516 1.574-1.516 3.688-3.25 2.558-2.169 4.651-4.157 6.812-6.75 1.96-2.353 3.696-4.11 6-6.062 3.974-3.388 7.681-7.002 11.375-10.688l1.732-1.719c2.405-2.413 4.498-4.688 6.393-7.531h2l.684-1.71c1.69-2.939 3.814-4.709 6.379-6.915 3.454-2.806 3.454-2.806 5.937-6.375h2v-2c1.574-1.516 1.574-1.516 3.688-3.25 2.558-2.169 4.651-4.157 6.812-6.75 2.596-3.115 5.374-5.584 8.45-8.207 3.175-2.776 6.099-5.783 9.05-8.793l2.438-2.375c3.079-3.155 5.932-6.479 8.792-9.832L716 439h2zm-13.82 108.59c-1.394 1.36-1.394 1.36-1.18 3.41h-2v2h-2c-1.296 1.282-1.296 1.282-2.687 3.063-3.755 4.42-7.779 8.525-11.875 12.625-.638.64-1.275 1.282-1.93 1.943-2.841 2.832-5.686 5.576-8.793 8.115-2.175 1.806-3.86 3.427-5.59 5.629-2.807 3.398-5.958 6.154-9.312 9-2.231 2-3.96 4.277-5.813 6.625a381 381 0 0 1-6 5c-2.687 2.556-5.097 5.12-7.437 8-1.942 2.273-3.585 3.922-5.875 5.75L631 619v2h-2v2l-1.783.798c-2.318 1.257-3.84 2.577-5.697 4.44l-2.003 1.993-2.134 2.156-2.227 2.228a2195 2195 0 0 0-4.655 4.678q-3.534 3.558-7.083 7.103l-4.535 4.553-2.122 2.125c-3.676 3.711-7.193 7.488-10.535 11.503-1.497 1.737-3.127 3.177-4.913 4.61-3.588 3.039-6.74 6.382-9.875 9.875-3.403 3.789-6.808 7.389-10.805 10.56-2.355 1.988-4.467 4.185-6.633 6.378l-3.77 3.77-2.001 2.001L539 711c4.223 5.04 8.63 9.772 13.29 14.41l2.156 2.158q3.556 3.557 7.116 7.108l5.116 5.116q5.496 5.496 10.995 10.987 7.951 7.94 15.898 15.885 12.895 12.892 25.795 25.778 12.527 12.513 25.05 25.029l1.561 1.56 7.754 7.75Q685.861 858.896 718 891c2.906-1.38 4.667-2.492 6.625-5.062C727 883 727 883 729 882v-2l1.828-.8c2.276-1.258 3.34-2.354 4.922-4.388 2.802-3.409 5.88-6.199 9.234-9.054 2.592-2.26 5.001-4.666 7.407-7.121a146 146 0 0 1 3.156-3.117c1.187-1.137 2.326-2.324 3.453-3.52v-2l1.645-.66c3.153-1.794 5.507-4.223 8.037-6.782l1.706-1.7c1.885-1.882 3.764-3.772 5.642-5.661l4.051-4.05q5.5-5.502 10.989-11.014 5.739-5.755 11.487-11.503 10.88-10.891 21.748-21.791 12.377-12.409 24.762-24.805Q874.542 736.526 900 711c-4.222-5.039-8.628-9.77-13.283-14.41l-2.154-2.158q-3.551-3.557-7.11-7.108l-5.11-5.116q-6.205-6.21-12.415-12.416-5.045-5.04-10.086-10.084l-1.451-1.452-2.92-2.92q-13.666-13.67-27.339-27.333a57218 57218 0 0 1-23.473-23.474 83262 83262 0 0 0-31.614-31.617q-5.043-5.042-10.084-10.087-6.771-6.777-13.55-13.546l-4.987-4.987q-3.385-3.39-6.776-6.771l-2.019-2.026c-8.285-8.248-14.476 3.299-21.45 10.095"/><path fill="#4e4c4c" d="M403 394h634v634l-7-6c-.72-.579-1.442-1.157-2.185-1.753-3.522-3.057-5.233-5.305-5.684-10.015q-.048-2.794.008-5.589l-.025-3.135c-.018-3.478.013-6.954.044-10.432q-.005-3.771-.018-7.542-.018-8.205.026-16.413c.042-8.135.044-16.27.038-24.405-.01-13.685.014-27.37.056-41.055q.063-20.325.076-40.652l.001-2.553.007-12.834c.015-30.305.062-60.61.128-90.916a75144 75144 0 0 0 .146-91.075q.014-13.67.027-27.34a322958 322958 0 0 1 .062-58.28c.064-57.003.175-114.007.293-171.011l-3.885.014c-56.5.2-113 .385-169.501.494l-2.593.005q-27.887.054-55.775.1l-27.352.046-2.75.005c-29.405.051-58.81.141-88.215.252-30.22.113-60.438.187-90.658.211l-12.806.012-2.546.002c-13.521.014-27.042.07-40.563.141q-20.393.106-40.785.08c-8.077-.01-16.152.015-24.228.088-6.033.05-12.065.037-18.099 0q-3.659-.007-7.317.049c-20.127.292-20.127.292-26.872-5.844C403 396.24 403 396.24 403 394"/><path fill="#ddd8d7" d="M402 394c13.205 11.319 13.205 11.319 13.746 17.773q.04 2.798-.007 5.595l.022 3.14c.016 3.482-.01 6.962-.037 10.445q.004 3.775.016 7.551.015 8.218-.021 16.435c-.037 8.147-.038 16.293-.033 24.44.007 14.549-.02 29.098-.06 43.647q-.055 19.098-.075 38.197l-.003 2.558-.011 10.28a61136 61136 0 0 1-.19 96.457q-.112 42.859-.138 85.718a61087 61087 0 0 1-.154 106.541l-.006 2.553q-.039 19.088-.046 38.174a12650 12650 0 0 1-.091 43.402q-.048 12.148-.036 24.297c.005 6.042-.021 12.083-.06 18.124q-.016 3.673 0 7.346c.012 3.32-.012 6.639-.045 9.959l.037 2.903c-.108 5.877-1.263 9.007-5.327 13.298C408 1024 408 1024 406 1024v2h-2v2h-2z"/><path fill="#6b6264" d="M720.06 527.2c2.957 1.22 4.71 3.255 6.932 5.534l1.42 1.44a859 859 0 0 1 4.463 4.576 1875 1875 0 0 0 4.442 4.533q2.028 2.068 4.046 4.146c2.602 2.618 2.602 2.618 5.528 4.9 2.36 1.926 4.309 3.983 6.277 6.307 3.889 4.49 8.028 8.68 12.246 12.86l2.456 2.447q2.619 2.607 5.241 5.213 4.144 4.12 8.281 8.245 11.759 11.72 23.531 23.426 7.215 7.176 14.418 14.364a3732 3732 0 0 0 5.502 5.47q3.83 3.805 7.649 7.62l2.318 2.292 2.086 2.09 1.827 1.817C840 646 840 646 840 648l1.61.625c3.398 1.955 5.9 4.596 8.64 7.375l1.68 1.656c4.07 4.09 4.07 4.09 4.07 6.344l1.72.733c2.728 1.516 4.572 3.32 6.773 5.533l2.669 2.67 2.854 2.884q1.47 1.476 2.942 2.951 3.862 3.876 7.713 7.763 3.938 3.966 7.884 7.923Q896.285 702.22 904 710c-1.549 3.688-3.79 6.044-6.602 8.86a1290.031 1290.031 0 0 1-6.023 6.03l-3.206 3.212q-3.355 3.36-6.718 6.708a2996 2996 0 0 0-8.615 8.622q-3.305 3.314-6.62 6.619-1.59 1.59-3.176 3.182-2.214 2.219-4.438 4.424l-2.553 2.548C854 762 854 762 852 762l-.679 1.664c-1.714 3.031-4.003 5.288-6.459 7.714l-1.601 1.607q-2.66 2.661-5.33 5.31l-3.813 3.815q-5.179 5.179-10.37 10.344-5.418 5.404-10.83 10.815a28606 28606 0 0 1-20.516 20.473 41716 41716 0 0 0-23.354 23.311A91881 91881 0 0 1 721 895l-1-3-2-1 1.46-1.207 1.915-1.606 1.898-1.582c1.95-1.687 1.95-1.687 3.727-4.605h2v-2c1.54-1.48 1.54-1.48 3.625-3.188 2.71-2.296 5.128-4.562 7.375-7.312 2.76-3.363 5.885-6.072 9.195-8.883 1.95-1.658 1.95-1.658 3.805-4.117 1.706-2.133 3.217-3.593 5.288-5.326 6.343-5.497 12.182-11.513 18.105-17.453l4.023-4.023q5.431-5.432 10.858-10.87 5.683-5.692 11.37-11.379 10.755-10.76 21.504-21.525 12.245-12.26 24.494-24.515Q873.825 736.209 899 711c-4.212-5.026-8.605-9.746-13.251-14.372l-2.144-2.146q-3.535-3.536-7.075-7.066l-5.087-5.087q-6.174-6.174-12.354-12.343-7.193-7.184-14.382-14.373a85033 85033 0 0 0-25.646-25.627q-12.454-12.44-24.904-24.884l-1.552-1.551-7.71-7.706A322276 322276 0 0 0 721 532c-4.723 3.056-4.723 3.056-8.957 6.727l-1.432 1.437-1.423 1.461-1.483 1.484c-2.686 2.696-2.686 2.696-4.705 5.891h-2v2h-2l-2 4h-2l-.78 1.766c-1.326 2.428-2.78 4.037-4.74 5.984l-2.1 2.094-2.192 2.156-2.159 2.156c-3.537 3.508-7.104 6.768-11.029 9.844l-1.687 2.25L669 583h-2l-2 4h-2l-.687 1.75c-1.66 2.846-3.705 4.248-6.313 6.25-2.862 2.715-5.474 5.54-8 8.562-2.432 2.88-5.006 5.135-8 7.438-2.623 2.495-4.964 4.953-7.187 7.812L631 621h-2v2c-1.238 1.219-1.238 1.219-3.09 2.723-6.167 5.247-11.807 11.025-17.52 16.756a2754 2754 0 0 1-5.857 5.851c-8.46 8.435-8.46 8.435-16.314 17.432L585 667h-2l-.687 1.75c-1.66 2.845-3.734 4.187-6.313 6.25a150 150 0 0 0-3.312 3.75c-3.667 4.278-7.42 8.56-11.688 12.25h-2l-.781 1.805c-1.327 2.39-2.61 3.6-4.719 5.32-5.131 4.33-9.8 9.088-14.5 13.875l-4-2a74795 74795 0 0 1 77.966-78.241l1.656-1.66q13.278-13.314 26.54-26.647 13.6-13.67 27.229-27.313 8.415-8.424 16.804-16.873a4329 4329 0 0 1 12.881-12.908q2.651-2.652 5.287-5.318a1276 1276 0 0 1 7.209-7.213l2.122-2.166 1.956-1.926 1.68-1.686C718 527 718 527 720.06 527.201"/><path fill="#4b3a3e" d="m681 132 2.142.496c2.941.519 5.605.604 8.59.57l3.444-.03 3.722-.044q3.983-.03 7.964-.057l2.092-.016c38.308-.286 77.604-.338 114.95 9.314 5.45 1.35 10.958 2.397 16.471 3.454l3.441.682 3.332.643 2.975.577c2.927.497 2.927.497 6.118.348C859 148 859 148 861 150c2.165.736 4.358 1.391 6.563 2l3.796 1.055c2.978.773 5.94 1.458 8.953 2.07L884 156l1 2 1.938-.187c3.64.222 6.572 1.276 9.976 2.53 2.198.807 2.198.807 5.086.657v2q2.685.542 5.375 1.063l3.023.597c2.58.584 2.58.584 4.602-.66l.563 1.938c1.38 2.483 1.38 2.483 5.062 2.812L924 169v2l3.188.625c5.247 1.284 9.928 3.668 14.761 6.035 2.74 1.203 5.107 1.898 8.051 2.34v2l2.125.375c3.052.663 5.928 1.597 8.875 2.625v2l3.25.313c3.597.659 5.208 1.145 7.75 3.687v2c-3.893-1.249-7.624-2.645-11.352-4.32l-3.044-1.36-3.229-1.445c-51.847-22.913-106.353-38.448-162.562-46l-3.5-.481c-21.662-2.788-43.415-3.732-65.24-3.655-3.573.011-7.145 0-10.718-.012-21.405-.014-42.831 1.023-64.043 4.023l-3.7.513C611.834 144.943 579.54 151.826 548 162l-3.659 1.167c-17.274 5.525-34.22 11.444-50.843 18.741a437 437 0 0 1-6.857 2.92c-8.929 3.754-17.45 8.13-25.985 12.703a314 314 0 0 1-10.597 5.4c-16.133 7.889-31.32 17.295-46.221 27.293-2.464 1.652-4.936 3.29-7.408 4.928-11.823 7.874-23.354 16.13-34.28 25.219C360 262 360 262 358 262v2c-1.66 1.488-1.66 1.488-4.062 3.313-16.496 12.899-31.675 27.363-46.5 42.125l-2.236 2.22a234 234 0 0 0-11.6 12.5 164 164 0 0 1-4.41 4.862c-5.4 5.737-10.197 11.466-14.633 17.996L273 349h-2l-.79 1.738c-1.304 2.438-2.808 4.331-4.585 6.45-9.947 12.263-18.608 25.58-27.276 38.762a1390 1390 0 0 1-3.61 5.452c-16.28 24.825-31.727 51.609-42.533 79.332-2.026 5.176-2.026 5.176-4.206 6.266l2-8 .445-2.023c.6-2.136 1.451-3.896 2.493-5.852 1.698-3.298 2.993-6.562 4.062-10.125h2l.313-3.25c.694-3.79 1.433-4.839 3.687-7.75.72-3.151.72-3.151 1-6l3-1c.713-1.647 1.366-3.32 2-5 1.543-2.84 3.213-5.603 4.875-8.375 5.74-8.994 5.74-8.994 10.125-18.625h2c1.604-3.508 2.22-6.144 2-10l1 2h2l.781-2.184c1.28-2.957 2.823-5.279 4.719-7.878 2.11-2.903 3.994-5.677 5.5-8.938h2l.875-2.25A82 82 0 0 1 248 375h2l.813-1.75C252 371 252 371 253.5 369.188c1.98-2.887 2.657-5.816 3.5-9.188h3c1.977-1.945 1.977-1.945 3.875-4.5l2.129-2.746a92 92 0 0 0 5.89-9.258C273 342 273 342 276 341v-2a178 178 0 0 1 4-4q1.327-1.582 2.625-3.187C285 329 285 329 287 328l.898-1.867c1.257-2.433 2.587-3.576 4.727-5.258 1.88-1.437 1.88-1.437 3.375-2.875v-2l3-1c1.476-1.456 1.476-1.456 2.938-3.312 3.304-3.894 6.782-7.562 10.375-11.188l1.599-1.638c1.324-1.327 2.702-2.6 4.088-3.862h2l1-3c1.46-1.473 1.46-1.473 3.375-3.062a400 400 0 0 0 10.438-9.188l2.769-2.516c1.85-1.71 3.64-3.45 5.418-5.234 3.667-3 3.667-3 6-3l1-3c1.996-1.824 1.996-1.824 4.438-3.687l2.433-1.887C359 259 359 259 361 259v-2l2.875-1.875c3.18-1.775 3.18-1.775 4.125-4.25 1.54-2.888 3.975-2.949 7-3.875a102 102 0 0 0 3-3c1.671-.95 3.344-1.899 5.027-2.828 4.126-2.451 8.265-5.313 11.52-8.856C396 231 396 231 399 231v-2l5-1v-2c4.385-3 4.385-3 7-3l1-2h3v-2a805 805 0 0 1 4.375-2.5l2.46-1.406C424 214 424 214 426 214v-2l7-2v-2c2.647-1.46 3.894-2 7-2l1-2a139 139 0 0 1 6.438-3c4.659-1.944 4.659-1.944 8.562-5a132 132 0 0 1 5.313-2.437A87 87 0 0 0 472 188c1.697-.736 3.394-1.47 5.105-2.172 2.07-.904 4.03-1.95 6.02-3.016 3.093-1.582 5.34-2.254 8.875-1.812v-2c6.634-2.862 6.634-2.862 9.813-4.062 2.34-.843 2.34-.843 4.187-2.938v2l2.813-1.5C512 171 512 171 515 171l1-3 2 1c2.008-.281 4.01-.61 6-1l1-4h4q3.507-.447 7-1l2.875-.437L541 162l1-2c1.756-.492 3.519-.965 5.297-1.371 3.379-.786 6.726-1.674 10.078-2.566l1.969-.522a268 268 0 0 0 13.605-4.025C575 151 575 151 579 151l1-2c2.292-.606 4.61-1.111 6.938-1.562 4.669-.807 4.669-.807 9.062-2.438a81 81 0 0 1 4.04-.469c4.814-.493 9.564-1.224 14.335-2.031l2.402-.395c3.167-.53 6.171-1.088 9.223-2.105 18.196-3.603 36.514-5.013 55-6z"/><path fill="#655759" d="m1255 498 3 1c.73 2.066.73 2.066 1.188 4.563l.48 2.503L1260 508h2l.734 2.457c1.899 6.273 3.923 12.456 6.196 18.602 3.298 9.064 6.295 18.124 8.394 27.55.61 2.625.61 2.625 2.676 5.391l-.062 2.563c.072 3.976 1.069 7.094 2.269 10.859 1.172 3.811 1.974 7.679 2.793 11.578a2315 2315 0 0 0 1.063 4.75c1.5 6.696 2.744 13.442 4 20.188l.564 2.958c.886 4.788 1.494 9.217 1.373 14.104l1 1c.208 1.474.367 2.955.5 4.438.291 3.407.291 3.407 1.5 6.562l-1 3c.044 2.02.044 2.02.34 4.203l.283 2.473.314 2.574c.676 5.635 1.07 11.067 1.063 16.75l.496 3.348c.607 4.396.613 8.66.566 13.09l-.013 2.505q-.02 3.03-.049 6.057l2 1h-2l.492 3.473c.539 4.34.66 8.596.633 12.965l-.008 2.428c-.108 14.356-.62 28.768-1.875 43.072-.235 2.978-.38 5.954-.515 8.938-.614 12.827-2.576 25.474-4.727 38.124l-.648 3.883c-1.29 7.571-2.763 14.98-4.735 22.41-.61 2.675-.91 5.224-1.117 7.957-.31 3.96-1.223 7.1-2.746 10.75-1.06 2.813-1.593 5.676-2.129 8.629-.693 2.627-1.771 4.993-2.867 7.473-1.274 3.19-1.993 6.493-2.758 9.836-1.324 5.544-2.9 10.765-5 16.062a339 339 0 0 0-1.437 4.875 95 95 0 0 1-3.626 10.188c-1.654 3.973-2.662 7.782-3.347 12.027-.716 2.317-1.893 3.222-3.59 4.91l-.5 3.5c-.542 3.794-.875 4.085-3.5 6.5-1.305 2.996-1.305 2.996-2 6l1 2-2 1.813c-2.337 2.062-2.337 2.062-2 5.187-1.242 2.34-1.242 2.34-2.875 4.938-4.248 6.53-4.248 6.53-5.125 14.062l-3 1c-3.035 4.479-5 9.56-5 15l-2.125 1.938c-3.48 3.291-5.379 7.416-7.543 11.636C1221 1000 1221 1000 1219 1002l1 2-2.25 2.063c-3.587 3.587-6.75 7.719-6.75 12.937a127 127 0 0 1-3.534 3.492c-2.774 2.854-4.878 6.213-7.091 9.508l-1.445 2.117c-4.732 6.01-4.732 6.01-6.93 12.883l-1.812 1.313c-3.08 2.374-4.534 5.249-6.126 8.75-1.34 2.445-3.059 3.99-5.062 5.937-3.585 3.95-6.798 8.053-9.836 12.434-1.527 2.055-3.357 3.759-5.164 5.566l-1 3c-1.707 1.648-1.707 1.648-3.812 3.375-3.133 2.649-5.763 5.29-8.188 8.625l2 2-2.652 1.133c-3.709 2.068-6.18 4.57-8.91 7.742q-1.376 1.56-2.754 3.117l-1.345 1.529c-2.03 2.242-4.197 4.345-6.339 6.479l-2 2.563c-2.11 2.57-4.404 4.374-7 6.437-1.763 2.126-1.763 2.126-3 4l-1-1c-3.638 3.528-6.93 7.223-10.156 11.133-1.844 1.867-1.844 1.867-4.16 3.238-3.479 2.111-6.197 4.758-9.121 7.566-3.984 3.824-7.896 7.061-12.563 10.063l-2 2q-1.704 1.3-3.437 2.563c-4.461 3.29-8.655 6.865-12.852 10.484-2.852 2.055-5.384 2.902-8.711 3.953a523 523 0 0 0-4 5c-1.986 1.368-4.032 2.581-6.11 3.805-2.293 1.45-4.012 3.25-5.89 5.195-1.32.694-2.655 1.357-4 2a423 423 0 0 0-4.625 2.5l-2.352 1.281c-2.148 1.184-2.148 1.184-4.023 3.219l-3 1-2 3v-3l-2.117 1.348-2.758 1.715-2.742 1.722L1009 1211l-2-1c5.52-3.868 11.23-7.322 17.063-10.687 6.887-3.98 13.462-8.287 19.935-12.91 4.805-3.403 4.805-3.403 7.002-3.403v-2c1.338-1.154 1.338-1.154 3.227-2.434l2.105-1.448 2.293-1.555A383 383 0 0 0 1082 1158l2.192-1.778a2382 2382 0 0 0 6.933-5.66l2.191-1.792c2.805-2.312 5.502-4.585 8.051-7.18C1103 1140 1103 1140 1105 1140l1-3c1.46-1.437 1.46-1.437 3.375-3 4.245-3.576 8.107-7.44 11.943-11.443 1.191-1.222 2.433-2.394 3.682-3.557h2v-2h2l.648-1.648c1.825-3.176 4.35-5.474 6.977-7.977 4.721-4.583 8.91-9.322 12.852-14.61L1151 1091h2l.793-1.723c2.721-5.134 6.625-9.734 10.77-13.777 2.767-2.838 4.73-5.86 6.812-9.219 1.625-2.281 1.625-2.281 3.957-4.566 3.236-3.293 5.745-6.857 8.355-10.652l3.211-4.618 1.597-2.3q1.957-2.788 3.982-5.528c12.212-16.623 23.847-34.596 32.835-53.18a428 428 0 0 1 7.233-14.071c20.363-38.018 34.804-79.152 45.455-120.866l.684-2.672a478 478 0 0 0 11.441-61.39l.39-3.224c8.052-66.95 6.286-136.563-10.026-202.241-.507-2.044-1.004-4.09-1.5-6.138-6.019-24.68-13.713-48.69-23.08-72.312C1255 500 1255 500 1255 498"/><path fill="#5c4a4f" d="M503 176v2l-1.563.652c-21.075 8.823-41.572 18.52-61.5 29.707a604 604 0 0 1-6.473 3.563c-10.144 5.549-19.8 11.711-29.4 18.151-2.49 1.67-4.988 3.326-7.488 4.982-11.871 7.906-23.454 16.189-34.425 25.315C360 262 360 262 358 262v2c-1.66 1.488-1.66 1.488-4.062 3.313-16.496 12.899-31.675 27.363-46.5 42.125l-2.236 2.22a234 234 0 0 0-11.6 12.5 164 164 0 0 1-4.41 4.862c-5.4 5.737-10.197 11.466-14.633 17.996L273 349h-2l-.79 1.738c-1.304 2.438-2.808 4.331-4.585 6.45-9.947 12.263-18.608 25.58-27.276 38.762a1390 1390 0 0 1-3.61 5.452c-16.28 24.825-31.727 51.609-42.533 79.332-2.026 5.176-2.026 5.176-4.206 6.266l2-8 .445-2.023c.6-2.136 1.451-3.896 2.493-5.852 1.698-3.298 2.993-6.562 4.062-10.125h2l.313-3.25c.694-3.79 1.433-4.839 3.687-7.75.72-3.151.72-3.151 1-6l3-1c.713-1.647 1.366-3.32 2-5 1.543-2.84 3.213-5.603 4.875-8.375 5.74-8.994 5.74-8.994 10.125-18.625h2c1.604-3.508 2.22-6.144 2-10l1 2h2l.781-2.184c1.28-2.957 2.823-5.279 4.719-7.878 2.11-2.903 3.994-5.677 5.5-8.938h2l.875-2.25A82 82 0 0 1 248 375h2l.813-1.75C252 371 252 371 253.5 369.188c1.98-2.887 2.657-5.816 3.5-9.188h3c1.977-1.945 1.977-1.945 3.875-4.5l2.129-2.746a92 92 0 0 0 5.89-9.258C273 342 273 342 276 341v-2a178 178 0 0 1 4-4q1.327-1.582 2.625-3.187C285 329 285 329 287 328l.898-1.867c1.257-2.433 2.587-3.576 4.727-5.258 1.88-1.437 1.88-1.437 3.375-2.875v-2l3-1c1.476-1.456 1.476-1.456 2.938-3.312 3.304-3.894 6.782-7.562 10.375-11.188l1.599-1.638c1.324-1.327 2.702-2.6 4.088-3.862h2l1-3c1.46-1.473 1.46-1.473 3.375-3.062a400 400 0 0 0 10.438-9.188l2.769-2.516c1.85-1.71 3.64-3.45 5.418-5.234 3.667-3 3.667-3 6-3l1-3c1.996-1.824 1.996-1.824 4.438-3.687l2.433-1.887C359 259 359 259 361 259v-2l2.875-1.875c3.18-1.775 3.18-1.775 4.125-4.25 1.54-2.888 3.975-2.949 7-3.875a102 102 0 0 0 3-3c1.671-.95 3.344-1.899 5.027-2.828 4.126-2.451 8.265-5.313 11.52-8.856C396 231 396 231 399 231v-2l5-1v-2c4.385-3 4.385-3 7-3l1-2h3v-2a805 805 0 0 1 4.375-2.5l2.46-1.406C424 214 424 214 426 214v-2l7-2v-2c2.647-1.46 3.894-2 7-2l1-2a139 139 0 0 1 6.438-3c4.659-1.944 4.659-1.944 8.562-5a132 132 0 0 1 5.313-2.437A87 87 0 0 0 472 188c1.697-.736 3.394-1.47 5.105-2.172 2.07-.904 4.03-1.95 6.02-3.016 3.093-1.582 5.34-2.254 8.875-1.812v-2c6.5-3 6.5-3 11-3"/><path fill="#a8a09f" d="M904 712a14655 14655 0 0 1-19.454 19.558 6361 6361 0 0 0-9.033 9.08q-4.35 4.382-8.714 8.753-1.666 1.672-3.328 3.35-2.322 2.34-4.654 4.67l-2.678 2.69C854 762 854 762 852 762l-.679 1.664c-1.714 3.031-4.003 5.288-6.459 7.714l-1.601 1.607q-2.66 2.661-5.33 5.31l-3.813 3.815q-5.179 5.179-10.37 10.344-5.418 5.404-10.83 10.815a28606 28606 0 0 1-20.516 20.473 41716 41716 0 0 0-23.354 23.311A91881 91881 0 0 1 721 895l-1-3-2-1 1.46-1.207 1.915-1.606 1.898-1.582c1.95-1.687 1.95-1.687 3.727-4.605h2v-2c1.54-1.48 1.54-1.48 3.625-3.187 2.71-2.297 5.128-4.563 7.375-7.313 2.76-3.363 5.885-6.072 9.195-8.883 1.95-1.658 1.95-1.658 3.805-4.117 1.708-2.135 3.223-3.598 5.297-5.333 6.296-5.457 12.084-11.434 17.956-17.338l3.98-3.989q4.263-4.274 8.523-8.551 6.733-6.76 13.475-13.512 19.16-19.196 38.304-38.408 10.59-10.626 21.189-21.24 6.705-6.717 13.4-13.444 4.156-4.172 8.319-8.336 1.933-1.936 3.861-3.878a1705 1705 0 0 1 5.264-5.273l1.549-1.568c5.22-5.184 5.22-5.184 9.883-3.63"/><path fill="#706365" d="M1237 963h2l1 5-3 1c-3.035 4.479-5 9.56-5 15l-2.125 1.938c-3.48 3.291-5.379 7.416-7.543 11.636C1221 1000 1221 1000 1219 1002l1 2c-1.114 1.02-1.114 1.02-2.25 2.063-3.587 3.587-6.75 7.719-6.75 12.937a127 127 0 0 1-3.534 3.492c-2.774 2.854-4.878 6.213-7.091 9.508l-1.445 2.117c-4.732 6.01-4.732 6.01-6.93 12.883l-1.812 1.313c-3.08 2.374-4.534 5.249-6.126 8.75-1.34 2.445-3.059 3.99-5.062 5.937-3.585 3.95-6.798 8.053-9.836 12.434-1.527 2.055-3.357 3.759-5.164 5.566l-1 3c-1.707 1.648-1.707 1.648-3.812 3.375-3.133 2.649-5.763 5.29-8.188 8.625l2 2-2.652 1.133c-3.709 2.068-6.18 4.57-8.91 7.742q-1.376 1.56-2.754 3.117l-1.345 1.529c-2.03 2.242-4.197 4.345-6.339 6.479l-2 2.563c-2.11 2.57-4.404 4.374-7 6.437-1.763 2.126-1.763 2.126-3 4l-1-1c-3.638 3.528-6.93 7.223-10.156 11.133-1.844 1.867-1.844 1.867-4.16 3.238-3.479 2.111-6.197 4.758-9.121 7.566-3.984 3.824-7.896 7.061-12.563 10.063l-2 2q-1.704 1.3-3.437 2.563c-4.461 3.29-8.655 6.865-12.852 10.484-2.852 2.055-5.384 2.902-8.711 3.953a523 523 0 0 0-4 5c-1.986 1.368-4.032 2.581-6.11 3.805-2.293 1.45-4.012 3.25-5.89 5.195-1.32.694-2.655 1.357-4 2a423 423 0 0 0-4.625 2.5l-2.352 1.281c-2.148 1.184-2.148 1.184-4.023 3.219l-3 1-2 3v-3l-2.117 1.348-2.758 1.715-2.742 1.722L1009 1211l-2-1c5.52-3.868 11.23-7.322 17.063-10.687 6.887-3.98 13.462-8.287 19.935-12.91 4.805-3.403 4.805-3.403 7.002-3.403v-2c1.338-1.154 1.338-1.154 3.227-2.434l2.105-1.448 2.293-1.555A383 383 0 0 0 1082 1158l2.192-1.778a2382 2382 0 0 0 6.933-5.66l2.191-1.792c2.805-2.312 5.502-4.585 8.051-7.18C1103 1140 1103 1140 1105 1140l1-3c1.46-1.437 1.46-1.437 3.375-3 4.245-3.576 8.107-7.44 11.943-11.443 1.191-1.222 2.433-2.394 3.682-3.557h2v-2h2l.648-1.648c1.825-3.176 4.35-5.474 6.977-7.977 4.721-4.583 8.91-9.322 12.852-14.61L1151 1091h2l.793-1.723c2.721-5.134 6.625-9.734 10.77-13.777 2.767-2.838 4.73-5.86 6.812-9.219 1.625-2.281 1.625-2.281 3.957-4.566 3.236-3.293 5.745-6.857 8.355-10.652l3.211-4.618 1.597-2.3q1.957-2.788 3.982-5.528c12.272-16.705 23.92-34.76 32.96-53.43 3.683-7.49 7.602-14.841 11.563-22.187"/><path fill="#7a6c70" d="M770 578c2.777 1.27 4.828 2.578 6.987 4.733l1.7 1.682 1.826 1.839 1.952 1.942q3.188 3.177 6.363 6.366l4.422 4.417q4.63 4.625 9.25 9.26 5.937 5.952 11.891 11.884 4.565 4.556 9.12 9.121 2.192 2.193 4.388 4.383 3.059 3.053 6.106 6.12l1.851 1.838C840 645.77 840 645.77 840 648l1.61.625c3.398 1.955 5.9 4.596 8.64 7.375l1.68 1.656c4.07 4.09 4.07 4.09 4.07 6.344l1.72.733c2.728 1.516 4.572 3.32 6.773 5.533l2.669 2.67 2.854 2.884q1.47 1.476 2.942 2.951 3.863 3.876 7.713 7.763 3.938 3.966 7.884 7.923Q896.285 702.22 904 710l-3 2c-2.684-1.342-4.088-3.466-5.994-5.729-4.45-5.038-9.311-9.705-14.07-14.448l-3.668-3.669q-4.955-4.954-9.916-9.903-5.19-5.184-10.378-10.37-9.813-9.809-19.634-19.613a76219 76219 0 0 1-22.36-22.338Q791.995 602.96 769 580z"/><path fill="#544549" d="m1255 498 3 1c.73 2.066.73 2.066 1.188 4.563l.48 2.503L1260 508h2l.734 2.457c1.899 6.273 3.923 12.456 6.196 18.602 3.298 9.064 6.295 18.124 8.394 27.55.61 2.625.61 2.625 2.676 5.391l-.062 2.563c.072 3.976 1.069 7.094 2.269 10.859 1.172 3.811 1.974 7.679 2.793 11.578a2315 2315 0 0 0 1.063 4.75c1.5 6.696 2.744 13.442 4 20.188l.564 2.958c.886 4.788 1.494 9.217 1.373 14.104l1 1c.208 1.474.367 2.955.5 4.438.291 3.407.291 3.407 1.5 6.562l-1 3c.044 2.02.044 2.02.34 4.203l.283 2.473.314 2.574c.676 5.635 1.07 11.067 1.063 16.75l.496 3.348c.607 4.396.613 8.66.566 13.09l-.013 2.505q-.02 3.03-.049 6.057l2 1h-2l.488 3.387c.6 4.815.696 9.578.7 14.426l.037 2.56.005 2.459.013 2.21C1298 723 1298 723 1296 726l-.049-1.712c-.85-29.205-2.072-58.216-5.693-87.223q-.372-2.99-.735-5.98c-5.46-44.09-17.253-87.302-33.614-128.562C1255 500 1255 500 1255 498"/><path fill="#ece3e1" d="M718 437c3.796.542 5.472 2.201 8 5l-1 2-5-5-2.206 2.206-53.953 53.953-1.443 1.444q-2.086 2.084-4.177 4.16a72 72 0 0 0-5.034 5.612 55 55 0 0 1-6.761 6.734c-5.041 4.36-9.72 9.053-14.422 13.774l-2.93 2.929a8025 8025 0 0 0-7.876 7.889q-4.129 4.135-8.26 8.268a33023 33023 0 0 0-15.607 15.628 48143 48143 0 0 1-17.783 17.804A105977 105977 0 0 0 543 616l-2-1a159 159 0 0 1 5-6h2l.766-1.793c1.38-2.467 2.798-3.744 4.984-5.52 3.424-2.876 6.261-5.891 9.023-9.402L564 591h2v-2c1.574-1.516 1.574-1.516 3.688-3.25 2.558-2.169 4.651-4.157 6.812-6.75 2.664-3.196 5.54-5.734 8.73-8.387 1.993-1.686 1.993-1.686 3.77-4.613h2l.695-1.723c1.645-2.87 3.67-4.566 6.18-6.715 3.47-2.977 6.29-5.985 9.125-9.562a97 97 0 0 1 3.938-3.437c2.577-2.19 4.833-4.353 6.937-7L620 535h2v-2c1.574-1.516 1.574-1.516 3.688-3.25 2.558-2.169 4.651-4.157 6.812-6.75 1.96-2.353 3.696-4.11 6-6.062 3.974-3.388 7.681-7.002 11.375-10.688l1.732-1.719c2.405-2.413 4.498-4.688 6.393-7.531h2l.684-1.71c1.69-2.939 3.814-4.709 6.379-6.915 3.454-2.806 3.454-2.806 5.937-6.375h2v-2c1.574-1.516 1.574-1.516 3.688-3.25 2.558-2.169 4.651-4.157 6.812-6.75 2.596-3.115 5.374-5.584 8.45-8.207 3.175-2.776 6.099-5.783 9.05-8.793l2.438-2.375c3.079-3.155 5.932-6.479 8.792-9.832L716 439h2z"/><path fill="#a99b9a" d="m189 479 2 1c-2.243 7.115-4.765 14.081-7.469 21.031-7.338 18.955-14.016 37.888-19.281 57.531l-.733 2.729c-4.348 16.297-8.247 32.646-10.767 49.334-.26 1.667-.26 1.667-.523 3.367q-.622 4.003-1.227 8.008h-1c-1.24-8.155-.72-14.877 1.309-22.871.627-2.84.826-5.237.691-8.129h2l.262-2.105c1.011-7.32 2.472-14.457 4.176-21.645l.621-2.65a160 160 0 0 1 4.225-14.501c1.055-3.092 1.986-6.214 2.904-9.349l1.042-3.516c.691-2.903.932-5.271.77-8.234h3l1-9h2l.367-2.59.508-3.347.492-3.34L176 508l2-1c2.099-4.77 3.339-9.841 4-15l-2.125-.812c-3.04-1.256-5.948-2.69-8.875-4.188l3-3 1.75 1.438c2.858 1.984 4.796 2.728 8.266 2.332 2.14-.59 2.14-.59 3.03-2.618l.704-2.214.734-2.223z"/><path fill="#b4a7a5" d="M1130 1116c0 3 0 3-2.25 5.375L1125 1124a348 348 0 0 0-4 5l-2 2-1-1c-3.638 3.528-6.93 7.223-10.156 11.133-1.844 1.867-1.844 1.867-4.16 3.238-3.479 2.111-6.197 4.758-9.121 7.566-3.984 3.824-7.896 7.061-12.563 10.063l-2 2q-1.704 1.3-3.437 2.563c-4.461 3.29-8.655 6.865-12.852 10.484-2.852 2.055-5.384 2.902-8.711 3.953a523 523 0 0 0-4 5c-1.986 1.368-4.032 2.581-6.11 3.805-2.293 1.45-4.012 3.25-5.89 5.195-1.32.694-2.655 1.357-4 2a423 423 0 0 0-4.625 2.5l-2.352 1.281c-2.148 1.184-2.148 1.184-4.023 3.219l-3 1-2 3v-3l-2.117 1.348-2.758 1.715-2.742 1.722L1009 1211l-2-1c5.52-3.868 11.23-7.322 17.063-10.687 6.887-3.98 13.462-8.287 19.935-12.91 4.805-3.403 4.805-3.403 7.002-3.403v-2c1.338-1.154 1.338-1.154 3.227-2.434l2.105-1.448 2.293-1.555A383 383 0 0 0 1082 1158l2.192-1.778a2382 2382 0 0 0 6.933-5.66l2.191-1.792c2.805-2.312 5.502-4.585 8.051-7.18C1103 1140 1103 1140 1105 1140l1-3c1.46-1.437 1.46-1.437 3.375-3 4.245-3.576 8.107-7.44 11.943-11.443 1.191-1.222 2.433-2.394 3.682-3.557h2v-2z"/><path fill="#776568" d="M266 352h2c-1.292 3.653-2.791 6.199-5.312 9.125C256.219 369.002 250.684 377.55 245 386l-2.707 4c-19.142 28.383-37.542 58.662-50.036 90.631-2.074 5.278-2.074 5.278-4.257 6.369l2-8 .445-2.023c.6-2.136 1.451-3.896 2.493-5.852 1.698-3.298 2.993-6.562 4.062-10.125h2l.313-3.25c.694-3.79 1.433-4.839 3.687-7.75.72-3.151.72-3.151 1-6l3-1c.713-1.647 1.366-3.32 2-5 1.543-2.84 3.213-5.603 4.875-8.375 5.74-8.994 5.74-8.994 10.125-18.625h2c1.604-3.508 2.22-6.144 2-10l1 2h2l.781-2.184c1.28-2.957 2.823-5.279 4.719-7.878 2.11-2.903 3.994-5.677 5.5-8.938h2l.875-2.25A82 82 0 0 1 248 375h2l.813-1.75C252 371 252 371 253.5 369.188c1.98-2.887 2.657-5.816 3.5-9.188h3c1.616-1.77 1.616-1.77 3.063-4 1.535-2.25 1.535-2.25 2.937-4"/><path fill="#46363c" d="M824 144c6.722-.217 12.64.533 19.188 2 6.588 1.496 6.588 1.496 13.3 2H859l2 2c2.165.736 4.358 1.391 6.563 2l3.796 1.055c2.978.773 5.94 1.458 8.953 2.07L884 156l1 2 1.938-.187c3.64.222 6.572 1.276 9.976 2.53 2.198.807 2.198.807 5.086.657v2q2.685.542 5.375 1.063l3.023.597c2.58.584 2.58.584 4.602-.66l.563 1.938c1.38 2.483 1.38 2.483 5.062 2.812L924 169v2l3.188.625c5.247 1.284 9.928 3.668 14.761 6.035 2.74 1.203 5.107 1.898 8.051 2.34v2l2.125.375c3.052.663 5.928 1.597 8.875 2.625v2l3.25.313c3.597.659 5.208 1.145 7.75 3.687v2c-3.893-1.249-7.624-2.645-11.352-4.32l-3.044-1.36-3.229-1.445C913.068 167.62 868.745 152.095 824 145z"/><path fill="#f0efef" d="M885 730c0 3 0 3-1.816 5.163l-2.574 2.536-1.414 1.406c-1.547 1.534-3.104 3.058-4.66 4.582l-3.222 3.195q-4.246 4.207-8.507 8.4-6.816 6.71-13.607 13.445c-1.585 1.569-3.177 3.13-4.768 4.692q-1.457 1.44-2.912 2.882l-2.577 2.536C836.8 780.932 836.8 780.932 836 784a145 145 0 0 1-5 3 78 78 0 0 0-3.866 3.626l-2.214 2.205-2.382 2.404-2.544 2.543a3476 3476 0 0 0-6.867 6.892q-3.591 3.607-7.19 7.207-6.806 6.816-13.6 13.642a18373 18373 0 0 1-15.49 15.533A40458 40458 0 0 0 745 873l-2-1z"/><path fill="#5d4f52" d="M1295 726h2c.029 4.292.047 8.583.063 12.875l.025 3.707.01 3.535.016 3.27C1297 752 1297 752 1296 754a86 86 0 0 0-.21 4.707l-.081 2.938-.084 3.168c-.383 11.556-1.718 22.792-3.625 34.187l-.508 3.078L1291 805l-.648 3.883c-1.289 7.57-2.753 14.978-4.739 22.402-.615 2.725-.873 5.305-1.05 8.09-.343 4.62-1.653 7.058-4.563 10.625-1.268-3.607-.715-6.001.258-9.652l.89-3.484.977-3.802c8.581-34.678 11.712-71.438 12.875-107.062"/><path fill="#655356" d="m349 266 2 1c-1.51 3.677-3.649 5.719-6.625 8.313l-2.738 2.406L339 280a610 610 0 0 0-30.875 28.75l-2.413 2.4c-4.207 4.217-8.25 8.516-12.135 13.032-1.43 1.648-2.89 3.25-4.386 4.838-5.4 5.737-10.196 11.466-14.632 17.996L273 349h-2l-2 4-2-2 1.875-2.187c1.962-2.597 3.078-4.76 4.125-7.813h3v-2a178 178 0 0 1 4-4q1.327-1.582 2.625-3.187C285 329 285 329 287 328l.898-1.867c1.257-2.433 2.587-3.576 4.727-5.258 1.88-1.437 1.88-1.437 3.375-2.875v-2l3-1c1.476-1.456 1.476-1.456 2.938-3.312 3.304-3.894 6.782-7.562 10.375-11.188l1.599-1.638c1.324-1.327 2.702-2.6 4.088-3.862h2l1-3c1.46-1.473 1.46-1.473 3.375-3.062a400 400 0 0 0 10.438-9.188l2.769-2.516c1.85-1.71 3.64-3.45 5.418-5.234 3.667-3 3.667-3 6-3z"/><path fill="#524146" d="M614 144c-6.665 2.794-13.42 4.312-20.476 5.816-20.905 4.484-41.121 10.642-61.399 17.371l-2.36.783c-7.752 2.578-15.459 5.162-22.984 8.36C505 177 505 177 503 177l2-5 1 2 2.813-1.5C512 171 512 171 515 171l1-3 2 1c2.008-.281 4.01-.61 6-1l1-4h4q3.507-.447 7-1l2.875-.437L541 162l1-2c1.756-.492 3.519-.965 5.297-1.371 3.379-.786 6.726-1.674 10.078-2.566l1.969-.522a268 268 0 0 0 13.605-4.025C575 151 575 151 579 151l1-2c2.292-.606 4.61-1.111 6.938-1.562 4.669-.807 4.669-.807 9.062-2.438a89 89 0 0 1 4.25-.5c2.756-.275 5.396-.62 8.125-1.125C611 143 611 143 614 144"/><path fill="#6c5e63" d="M843 651c3.63 1.532 5.986 3.718 8.75 6.5l2.422 2.406C856 662 856 662 856 664l1.72.733c2.728 1.516 4.572 3.32 6.773 5.533l2.669 2.67 2.854 2.884q1.47 1.476 2.942 2.951 3.863 3.876 7.713 7.763 3.938 3.966 7.884 7.923Q896.285 702.22 904 710l-3 2c-2.696-1.348-4.11-3.492-6.023-5.766-3.753-4.242-7.84-8.167-11.871-12.142a2148 2148 0 0 1-4.967-4.92q-7.043-6.995-14.106-13.968a2932 2932 0 0 1-8.658-8.583 906 906 0 0 0-3.299-3.258 867 867 0 0 1-4.581-4.544l-2.637-2.607C843 654 843 654 843 651"/><path fill="#514246" d="m1203 395 2 1 1 3 2 2c2 3 2 3 2 7h2c2 3 2 3 2 6h2l1.242 2.336 1.633 3.039 1.617 3.023c1.39 2.655 1.39 2.655 3.508 4.602l.813 2.063c1.01 2.498 2.116 4.671 3.44 7.007 3.19 5.687 6.184 11.47 9.173 17.264l1.27 2.436 1.125 2.175c1.155 2.122 1.155 2.122 2.784 4.132 1.859 2.563 2.006 4.812 2.395 7.923.369 2.232.369 2.232 1 4l2 1a168 168 0 0 1 2 6l.938 1.875c1.635 3.27 2.804 6.693 4.062 10.125l-2 2-.943-2.145C1241.68 469.282 1230.984 446.279 1218 424l-1.457-2.504c-4.45-7.64-8.932-15.25-13.68-22.71L1202 397z"/><path fill="#8e8081" d="m1186 1050 1 3-1.437 1.313c-1.8 1.71-1.8 1.71-2.563 4.687a178 178 0 0 1-4 4c-3.585 3.95-6.798 8.053-9.836 12.434-1.527 2.055-3.357 3.759-5.164 5.566l-1 3c-1.707 1.648-1.707 1.648-3.812 3.375-3.133 2.649-5.763 5.29-8.188 8.625l2 2-2.648 1.129c-3.732 2.083-6.226 4.618-8.977 7.809-7.232 8.186-7.232 8.186-9.375 10.062h-3c1.6-4.068 4.528-6.674 7.625-9.625 4.721-4.583 8.91-9.322 12.852-14.61L1151 1091h2l.793-1.723c2.721-5.134 6.625-9.734 10.77-13.777 2.812-2.884 4.79-5.998 6.968-9.371 1.867-2.706 4.119-4.837 6.469-7.129 1.602-2.08 3.145-4.19 4.668-6.328C1184 1051 1184 1051 1186 1050"/><path fill="#ebe0df" d="M539 616h2c-1.425 3.245-3.154 5.402-5.657 7.898l-2.303 2.311-2.529 2.507-2.66 2.662a3829 3829 0 0 1-7.227 7.201q-3.78 3.764-7.552 7.535-7.145 7.135-14.3 14.259-8.145 8.114-16.28 16.236A44543 44543 0 0 1 449 710l-2-1c2.34-3.217 4.858-5.814 7.875-8.375 3.366-2.857 6.171-5.874 8.898-9.34L465 690h2v-2c1.68-1.621 1.68-1.621 3.875-3.437 2.587-2.147 4.237-3.73 6.125-6.563h2l.695-1.723c1.645-2.87 3.67-4.566 6.18-6.715 3.47-2.977 6.29-5.985 9.125-9.562a97 97 0 0 1 3.938-3.437c2.473-2.11 4.465-4.047 6.562-6.563 2.067-2.48 3.998-4.367 6.438-6.437 3.194-2.718 5.835-5.567 8.488-8.801 2.352-2.633 5.025-4.84 7.742-7.086 1.924-1.65 1.924-1.65 3.445-3.883L533 622h2l.875-1.875C537 618 537 618 539 616"/><path fill="#917f80" d="M223 415c.611 1.78.611 1.78 1 4-1.399 2.77-2.862 5.313-4.5 7.938-5.026 8.37-9.698 16.895-14.187 25.562l-.976 1.88c-4.438 8.582-8.56 17.245-12.08 26.25-2.074 5.279-2.074 5.279-4.257 6.37l2-8 .445-2.023c.6-2.136 1.451-3.896 2.493-5.852 1.698-3.298 2.993-6.562 4.062-10.125h2l.313-3.25c.694-3.79 1.433-4.839 3.687-7.75.72-3.151.72-3.151 1-6l3-1c.713-1.647 1.366-3.32 2-5 1.563-2.882 3.254-5.687 4.938-8.5l1.341-2.262q1.283-2.16 2.572-4.316 1.458-2.442 2.903-4.89C222 416 222 416 223 415"/><path fill="#c3afab" d="M161 557h2c.505 6.888-1.397 12.954-3.187 19.563-3.93 15.007-6.504 30.106-8.813 45.437h-1c-1.24-8.155-.72-14.877 1.309-22.871.627-2.84.826-5.237.691-8.129h2l.262-2.105c1.493-10.809 4.112-21.315 6.738-31.895"/><path fill="#c6bab9" d="m1052 1182 2 1c-2.816 2.423-5.431 4.662-8.625 6.563-2.464 1.362-2.464 1.362-4.437 3.5-1.968 1.967-3.454 2.751-5.938 3.937a423 423 0 0 0-4.625 2.5l-2.352 1.281c-2.148 1.184-2.148 1.184-4.023 3.219l-3 1-2 3v-3l-2.117 1.348-2.758 1.715-2.742 1.722L1009 1211l-2-1c5.52-3.868 11.23-7.322 17.063-10.687 6.85-3.96 13.397-8.24 19.847-12.822 2.685-1.897 4.952-3.445 8.09-4.491"/><path fill="#776a6b" d="m1214 1006 2 1-.84 1.61-1.098 2.14-1.09 2.11c-1.046 2.053-1.046 2.053-1.288 4.093-1.039 3.11-3.363 4.758-5.684 7.047-1.986 2.592-3.805 5.29-5.625 8l-1.445 2.117c-4.732 6.01-4.732 6.01-6.93 12.883l-7 4c1.5-4.498 4.02-7.912 6.875-11.625 6.123-8.137 11.487-16.69 16.847-25.34 1.706-2.716 3.48-5.379 5.278-8.035"/><path fill="#6e5c60" d="m296 318 1 3-1.652 1.582c-7.888 7.699-14.817 16.042-21.157 25.055L273 349h-2l-2 4-2-2 1.875-2.187c1.962-2.597 3.078-4.76 4.125-7.813h3v-2a178 178 0 0 1 4-4q1.327-1.582 2.625-3.187C285 329 285 329 287 328l.898-1.86c1.255-2.438 2.611-3.666 4.727-5.39l1.914-1.578z"/><path fill="#a09091" d="M1130 1116c0 3 0 3-2.25 5.375L1125 1124a348 348 0 0 0-4 5l-2 2-1-1-2.062 2.063-1.376 1.355a116 116 0 0 0-3.312 3.508l-1.812 1.949-1.692 1.867c-1.746 1.258-1.746 1.258-3.96.953L1102 1141l3-1 1-3c1.46-1.437 1.46-1.437 3.375-3 4.245-3.576 8.107-7.44 11.943-11.443 1.191-1.222 2.433-2.394 3.682-3.557h2v-2z"/><path fill="#807071" d="m242 384 2 1c-3.126 6.991-7.026 13.262-11.345 19.557-2.77 4.046-5.272 8.156-7.655 12.443l-2-3 1-3h2c1.604-3.508 2.22-6.144 2-10l1 2h2l.781-2.184c1.28-2.957 2.823-5.279 4.719-7.878 2.11-2.903 3.994-5.677 5.5-8.938"/><path fill="#48393e" d="M976 194c4.876.61 8.72 2.745 13 5q1.998 1.005 4 2v2l2.813.375C999 204 999 204 1002 206v2h4v2h3l-1 3-1.86-1.022a9497 9497 0 0 0-8.515-4.666l-2.926-1.607A470 470 0 0 0 976 196z"/><path fill="#9c8989" d="M202 452c1 2 1 2 .62 3.742-2.274 6.547-4.917 12.905-7.683 19.258l-1.353 3.176-1.307 3.012-1.18 2.73C190 486 190 486 188 487l2-8 .445-2.023c.6-2.136 1.451-3.896 2.493-5.852 1.698-3.298 2.993-6.562 4.062-10.125h2l.375-3.375C200 454 200 454 202 452"/><path fill="#887b7c" d="m1186 1050 1 3-1.437 1.313c-1.8 1.71-1.8 1.71-2.563 4.687a178 178 0 0 1-4 4c-3.465 3.892-6.775 7.907-10 12l-3-1c6.156-8.425 12.52-16.704 20-24"/><path fill="#4d3d43" d="M1154 330c2 1.375 2 1.375 4 3v2h2l.875 1.938c.953 2.214.953 2.214 3.125 3.062l1.188 2c2.173 3.597 4.74 6.752 7.386 10.012C1174 354 1174 354 1174 356l2 1h-3c-1.727-1.8-1.727-1.8-3.625-4.312l-2.113-2.747L1165 347a1091 1091 0 0 0-4.812-5.875c-2.467-2.995-4.886-6.002-7.188-9.125z"/><path fill="#b5a09e" d="M168 529h3c-.456 7.374-1.926 14.067-4.062 21.125l-.854 2.898q-1.03 3.492-2.084 6.977c-1.507-2.374-2.059-3.565-1.676-6.394l.793-2.633.84-2.9.918-3.01q.88-2.95 1.742-5.903l.8-2.636c.6-2.595.688-4.871.583-7.524"/><path fill="#686767" d="m306 269 1 2-2-1zm-4 3 2 1v3l-1.687.125c-3.486 1.319-5.029 4.005-7.313 6.875l-3 2-1 3c-1.812 1.535-1.812 1.535-4 3.063-3.016 2.017-3.016 2.017-5 4.937h-2c1.54-3.668 3.755-5.986 6.57-8.766l2.715-2.695 2.84-2.789q1.433-1.417 2.863-2.836 3.5-3.464 7.012-6.914"/><path fill="#a39b9b" d="M731 879c1 3 1 3 .352 4.89-1.7 2.654-3.718 4.665-5.977 6.86l-2.477 2.422L721 895l-1-3-2-1 1.46-1.207 1.915-1.606 1.898-1.582c1.95-1.687 1.95-1.687 3.727-4.605h2v-2z"/><path fill="#74666b" d="M827 635c3.63 1.532 5.986 3.718 8.75 6.5l2.422 2.406C840 646 840 646 840 648l4 2-2 3a1303 1303 0 0 1-7.5-7.312l-2.168-2.092-2.05-2.022c-.63-.612-1.258-1.225-1.905-1.856C827 638 827 638 827 635"/><path fill="#626061" d="m378 211 1 4-1.676.285c-2.939.904-5.008 2.374-7.512 4.153l-2.667 1.87c-2.234 1.516-2.234 1.516-3.145 3.692h-2v2l-9 3c3.683-3.891 7.547-7.005 11.938-10.062l1.802-1.276A455 455 0 0 1 378 211"/><path fill="#635659" d="m717 531 3 1-1.941 1.688c-4.95 4.367-9.523 8.747-13.684 13.878L703 549h-2v2l-2-1c2.515-4.882 6.096-8.242 10-12l2.75-2.812C714 533 714 533 717 531"/><path fill="#bfadac" d="m1028 1197 2 1v2l-1.875.875c-2.258 1.062-2.258 1.062-4.125 3.125l-3 1-2 3v-3l-2.117 1.348-2.758 1.715-2.742 1.722L1009 1211l-2-1a293 293 0 0 1 15.438-9.937l3.058-1.84z"/><path fill="#483b3e" d="M1095 272c3 1 3 1 4 3l1.75.813c4.057 2.14 6.736 5.416 9.25 9.187l2-1 1 6c-4.456-3.206-8.766-6.555-12.937-10.125l-2.278-1.945c-1.878-2.03-2.407-3.228-2.785-5.93"/><path fill="#6b6a6a" d="M687 107v1l-2.957.184-3.856.254c-1.264.08-2.529.162-3.832.246-3.347.188-3.347.188-6.355 1.316-1.353.043-2.709.04-4.062 0-3.724-.293-3.724-.293-5.938 1-2.718.072-5.409.093-8.125.063l-2.285-.014q-2.795-.02-5.59-.049v-1c14.373-1.87 28.492-3.546 43-3"/><path fill="#988c8c" d="m1142 1102 3 1a4063 4063 0 0 1-4.25 4.75l-2.39 2.672L1136 1113l-2.11 2.328C1132 1117 1132 1117 1129 1117c1.61-4.074 4.538-6.765 7.625-9.75l1.563-1.535A897 897 0 0 1 1142 1102"/><path fill="#726869" d="M547 698c1 3 1 3 0 5.313-2.577 3.463-5.639 6.007-9 8.687l-3-2z"/><path fill="#605f5f" d="M481 156c-3.334 2.191-6.042 3.435-10 4v3l-2.687.25c-3.74.847-5.447 2.282-8.313 4.75h-2l-1-3q4.092-1.94 8.188-3.875l2.33-1.105c11.07-5.226 11.07-5.226 13.482-4.02"/><path fill="#807273" d="M1198 1031h2c-1.39 4.449-3.86 7.57-6.758 11.133-1.519 1.91-1.519 1.91-1.242 4.867l-7 4c1.606-4.924 4.453-8.7 7.5-12.812l1.512-2.1 1.457-1.983 1.326-1.807z"/><path fill="#736266" d="M889 699c4.928.417 6.978 2.55 10.313 6.063l2.675 2.785L904 710l-3 2c-2.273-1.137-3.248-2.311-4.875-4.25l-1.594-1.895A389 389 0 0 1 889 699"/><path fill="#4f3f45" d="M1178 360c2.772 1.386 3.425 3.347 5 6 2.04 2.541 4.143 5.02 6.258 7.5 1.81 2.597 2.375 4.388 2.742 7.5-3.608-3.48-6.765-7.064-9.812-11.062l-2.395-3.098C1178 364 1178 364 1178 360"/><path fill="#a39291" d="m184 489 3 1c-1.765 6.107-3.696 12.074-6 18-1.125-1.625-1.125-1.625-2-4 .688-2.687.688-2.687 2-6q.825-2.433 1.625-4.875z"/><path fill="#777676" d="M245 335c0 3.802-1.2 5.112-3.375 8.188l-1.898 2.73L238 348h-2l-.812 2.188c-1.192 2.821-2.44 5.295-4.188 7.812l-3 1c1.3-3.621 2.842-6.375 5.223-9.39l1.88-2.4 1.96-2.46 1.97-2.508c4.732-6.007 4.732-6.007 5.967-7.242"/><path fill="#555454" d="M562 128c-3.281 2.187-5.154 2.41-9 3a302 302 0 0 0-7.125 2c-7.509 2.196-7.509 2.196-10.875 3l-1-2 2.71-.77 3.665-1.042 1.923-.544a300 300 0 0 0 13.616-4.226c2.362-.473 3.82-.171 6.086.582"/><path fill="#626161" d="M324 252h2c-1.285 2.867-2.571 4.976-5 7h-2l-.687 1.813c-1.652 2.753-3.552 3.63-6.313 5.187l-1 2-3-1a207 207 0 0 1 13.398-12.617c.89-.769 1.77-1.551 2.602-2.383"/><path fill="#48393e" d="M1055 241c3.114 1.5 6.122 3.082 9 5v2h4l1 4 4 1-1 3a1349 1349 0 0 1-7.937-5.812l-2.288-1.659-2.177-1.611-2.016-1.476C1056 244 1056 244 1055 241"/><path fill="#5c4a4f" d="M574 675c0 3 0 3-1.193 4.534l-1.65 1.603-1.778 1.748-1.879 1.803-1.879 1.837A891 891 0 0 1 561 691l-2-1 3.906-4.492c1.29-1.467 1.29-1.467 1.094-3.508 3.11-2.755 6.398-4.942 10-7"/><path fill="#c2b2b0" d="M149 622h1c-.964 14.781-.964 14.781-2 21h-1v-7l-3-1 1-7h2l.438-1.875C148 624 148 624 149 622"/><path fill="#4b3c41" d="M1127 302q1.659 1.404 3.313 2.813l1.863 1.582c3.344 2.942 3.344 2.942 4.824 4.605v2l1.875.688c2.74 1.691 3.175 3.304 4.125 6.312a208 208 0 0 1-11.937-10.687l-2.34-2.262C1127 305 1127 305 1127 302"/><path fill="#6f6a6b" d="m577.36 670.16 1.64.84c-3.97 4.218-8.308 7.612-13 11l-2-1c1.735-1.87 3.486-3.72 5.25-5.562l1.488-1.616c3.734-3.858 3.734-3.858 6.621-3.662"/><path fill="#493a3f" d="M1014 213c1.671.992 3.336 1.995 5 3l2.113 1.242 2.2 1.32 2.113 1.254L1027 221v2l3 1-1 2-16-10z"/><path fill="#696768" d="m443 172 2 1c-2.312 2.5-2.312 2.5-5 5h-3c-1.794.86-1.794.86-3.562 2-3.438 2-3.438 2-5.438 2 1.218-3.654 2.638-4.131 5.967-5.8l1.97-.95 1.96-.996c1.668-.821 3.384-1.545 5.103-2.254"/><path fill="#686768" d="M1297 885h2c-1.353 7.884-3.544 15.394-6 23h-1a286 286 0 0 1-.187-5.312l-.106-2.989c.345-3.18 1.025-3.612 3.293-5.699.784-2.264.784-2.264 1.188-4.687l.48-2.45z"/><path fill="#716b6c" d="M627 618c.813 1.625.813 1.625 1 4-2.125 3.25-2.125 3.25-5 6-2.812.375-2.812.375-5 0q1.404-1.659 2.813-3.312l1.582-1.864A88 88 0 0 1 627 618"/><path fill="#8b797a" d="M223 415c.746 1.578.746 1.578 1 4a66 66 0 0 1-3.937 6.75l-1.17 1.824A429 429 0 0 1 216 432l-1-2a98 98 0 0 1 3-7l1.563-3.312C221 417 221 417 223 415"/><path fill="#6b5c5e" d="M558 691c0 3 0 3-2.187 5.262-.929.8-1.857 1.6-2.813 2.426l-2.812 2.449L548 703c-1-2-1-2-.562-4.375 2.028-3.407 4.233-4.261 7.785-5.828 1.763-.664 1.763-.664 2.777-1.797"/><path fill="#747172" d="M683 562c0 3.664-.704 4.229-3 7l-1.312 1.59A770 770 0 0 1 675 575l-4-1z"/><path fill="#ccbcb9" d="M1007 1211v2c-1.828 1.543-1.828 1.543-4.25 3.188l-2.39 1.667c-2.36 1.145-2.36 1.145-4.657.82L994 1218c2.155-2.357 4.197-3.79 7.063-5.187l2.097-1.043c1.84-.77 1.84-.77 3.84-.77"/><path fill="#b3a3a2" d="m1063 1173 1 3c-2.55 3.116-5.217 3.842-9 5a87 87 0 0 0-4 2v-2a103 103 0 0 1 6-4.125l1.734-1.129A710 710 0 0 1 1063 1173"/><path fill="#a8a1a0" d="M1130 1116c0 3 0 3-2.25 5.375L1125 1124a348 348 0 0 0-4 5l-2 2-1-3 1.715-1.645 2.223-2.168 2.214-2.144c2.056-1.998 2.056-1.998 2.848-5.043z"/><path fill="#a59b9a" d="m794 816 2 1c-.557 3.23-1.292 5.066-4 7-2.687.188-2.687.188-5 0l2.938-3.437 1.652-1.934A50 50 0 0 1 794 816"/><path fill="#dac9c7" d="M718 437c3.796.542 5.472 2.201 8 5l-1 2-5-5-7 7-2-1a159 159 0 0 1 5-6h2z"/><path fill="#5e5c5d" d="M517 142c-4.632 3.242-9.633 4.49-15 6l-3 1-1-2q4.183-1.545 8.375-3.062l2.406-.893 2.305-.83 2.126-.778C515 141 515 141 517 142"/><path fill="#f7f0ee" d="M841 1276c-2.785 2.785-5.145 2.543-9 3l-2.812.625C827 1280 827 1280 825 1279v-2c5.349-.592 10.609-1.142 16-1"/><path fill="#63585b" d="M646 599c2.125.375 2.125.375 4 1a279 279 0 0 1-2.312 3.438l-1.301 1.933C645 607 645 607 642 608l-1-2h3l-.125-2.375C644 601 644 601 646 599"/><path fill="#4a3b40" d="M1075 256h3v2h2c1.5 1.375 1.5 1.375 3 3l2 2-1 3a732 732 0 0 1-4.5-3.875l-2.531-2.18L1075 258z"/><path fill="#d7cbc9" d="m977 1227-1 5h-3c-2.067.908-2.067.908-4 2l-2 1-1-4a875 875 0 0 1 4.375-2l2.46-1.125C975 1227 975 1227 977 1227"/><path fill="#a49a99" d="M810 800h1c.36 4.45.36 4.45-1.187 6.813-2.373 1.554-4.033 1.412-6.813 1.187l2.938-3.437 1.652-1.934A50 50 0 0 1 810 800"/><path fill="#e5d5ce" d="M147 779h1l1 15-3-2c-.328-2.785-.328-2.785-.25-6.062.015-1.085.03-2.169.047-3.286C146 780 146 780 147 779"/><path fill="#626161" d="m341 238 2 1-2.812 2.25c-1.921 1.588-3.315 2.921-4.813 4.938-1.576 2.077-2.99 2.825-5.375 3.812l-1-2h2v-2a96 96 0 0 1 5-4.125l2.813-2.195z"/><path fill="#565555" d="M928 143q2.626.68 5.25 1.375l2.953.773A34.6 34.6 0 0 1 943 148l-1 2-1.828-.656-2.422-.844-2.39-.844c-2.594-.835-2.594-.835-6.36-.656z"/><path fill="#736d6e" d="m643 602 1 4-2 1c-1.134 2.017-1.134 2.017-2 4l-4-2z"/><path fill="#b9a7a4" d="M168 529h3c-.087 1.605-.196 3.21-.312 4.813l-.176 2.707C170 539 170 539 167 542z"/><path fill="#575657" d="M768 108c6.433-.12 12.618.176 19 1-.988 1.582-.988 1.582-3 3a62 62 0 0 1-8.187-1.312l-2.272-.475c-1.85-.389-3.696-.799-5.541-1.213z"/><path fill="#c1b2b0" d="m1052 1182 2 1c-3.996 3.71-6.37 5.598-12 6 2.982-3.326 5.864-5.292 10-7"/><path fill="#e3ccc7" d="M149 794h1q.506 2.842 1 5.688l.563 3.199c.388 2.762.52 5.33.437 8.113l-1.437-2-1.563-2h-1z"/><path fill="#716b6c" d="M611 634h1c.125 2.375.125 2.375 0 5-2.565 2.565-4.477 2.54-8 3l2.938-3.437 1.652-1.934A50 50 0 0 1 611 634"/><path fill="#625155" d="M662 587v3c-1.465 1.27-2.936 2.534-4.465 3.727-1.86 1.542-3.198 3.268-4.535 5.273l-2-1c5.966-8.631 5.966-8.631 11-11"/><path fill="#4e3f44" d="M1193 381c5.846 5.538 5.846 5.538 7 9l-1 3-7-11z"/><path fill="#5b595a" d="m378 211 1 4-1.562.25c-3.483 1.071-6.31 2.885-9.438 4.75 1.41-3.471 2.906-4.88 6.125-6.75l2.195-1.297z"/><path fill="#a49c9a" d="m843 769 1 3c-1.974 2.523-2.967 2.993-6.187 3.688L835 776c2.578-2.648 4.916-4.944 8-7"/><path fill="#a09494" d="m743 866 2 1-1 5-5 1c0-3 0-3 2-5.187z"/><path fill="#6a6969" d="M1317 792h2c.083 4.833-.047 9.237-1 14h-1c-1.333-9.41-1.333-9.41 0-14"/><path fill="#a59998" d="m859 751 2 4c-5.625 3-5.625 3-9 3z"/><path fill="#857076" d="M894 704c8.561 4.122 8.561 4.122 10 7l-5 1-.812-1.75c-1.205-2.283-2.596-4.224-4.188-6.25"/><path fill="#a29594" d="M780 831v5l-1.937.375L776 837l-1 2-3-1q1.715-1.754 3.438-3.5l1.933-1.969C779 831 779 831 780 831"/><path fill="#655a5c" d="m582 665 2 1-3 5-5-1c1.398-2.796 3.263-3.598 6-5"/><path fill="#73686b" d="M748 555h2c1.29 1.531 1.29 1.531 2.625 3.5l1.352 1.969L755 562h-4c-2.36-2.36-2.491-3.779-3-7"/><path fill="#5f5d5e" d="m405 193 2 1-1 2h-2l-1 3h-5c2.257-2.335 4.28-4.187 7-6"/><path fill="#8c777a" d="m539 706 4 2-5 4-3-2z"/><path fill="#5d4e52" d="M670 579v3l-3 1c-1.209 2-1.209 2-2 4l-2-1v-3l2.938-1.437c2.867-1.265 2.867-1.265 4.062-2.563"/><path fill="#5e5d5d" d="m393 201 2 1c-6.143 5.571-6.143 5.571-11 6 5.482-5.787 5.482-5.787 9-7"/><path fill="#e6d6d3" d="M164 865c2.12 3.534 2.532 6.944 3 11l-1-3h-2c-1.125-5.75-1.125-5.75 0-8"/><path fill="#6c6869" d="m662 583 2 3a91 91 0 0 1-4 4h-2c.564-3.27 1.5-4.826 4-7"/><path fill="#9c9a9a" d="M179 437c.553 2.076 1 3.844 1 6-1.312 1.438-1.312 1.438-3 3l-1.687 1.688L174 449c1.31-4.234 2.944-8.074 5-12"/><path fill="#717070" d="m287 287 1 3-2.437 1.875c-2.602 1.867-2.602 1.867-3.563 4.125h-2c1.555-3.817 4.036-6.192 7-9"/><path fill="#575757" d="M465 164c-4.75 4-4.75 4-7 4l-1-3c3.067-1.862 4.597-2.215 8-1"/><path fill="#988b8c" d="M731 879c1 3 1 3 .063 5.188L730 886l-2-2-2 1 1-3h2v-2z"/><path fill="#aaa4a3" d="M758 852h2l1 3-5 4c.875-5.875.875-5.875 2-7"/><path fill="#837374" d="M227 408c.75 1.688.75 1.688 1 4-1.937 2.75-1.937 2.75-4 5-1-3-1-3 0-6h2z"/><path fill="#605f5f" d="m352 230 1 2c-1.53 3.059-3.942 3.69-7 5l-2-1z"/><path fill="#4e4d4d" d="M1044 200q2.007 1.176 4 2.375l2.25 1.336L1052 205v2l-8-4z"/><path fill="#737272" d="M546 132c-1.432.7-2.87 1.384-4.312 2.063l-2.426 1.16C537 136 537 136 534 135c4.021-2.68 7.26-4.58 12-3"/><path fill="#999493" d="m1149 1095 4 3-8 4a56.5 56.5 0 0 1 4-7"/><path fill="#777575" d="m635 610 1 4c-4.625 3-4.625 3-8 3z"/><path fill="#4c4a4b" d="M1095 237c3.161 1.37 3.993 1.99 6 5l-4 1-1-3h-2z"/><path fill="#47393e" d="m1033 225 8 5-4 1c-2.75-1.937-2.75-1.937-5-4z"/><path fill="#575657" d="M445 173c-4.75 4.875-4.75 4.875-7 6 .25-2.375.25-2.375 1-5 3.307-2.347 3.307-2.347 6-1"/><path fill="#686767" d="M498 149c-3.512 2.408-5.727 3.366-10 3 3.156-3.156 5.69-4.437 10-3"/><path fill="#6b6969" d="M1289 908h3l-2 7-2-2c.375-2.625.375-2.625 1-5"/><path fill="#faf3ec" d="M164 873h2v3l2 1v5l-2-4h-2z"/><path fill="#a29f9e" d="m787 825 1 3a91 91 0 0 1-4 4h-2c1.293-2.884 2.66-4.872 5-7"/><path fill="#604d50" d="M558 691v3c-3 2.188-3 2.188-6 4l-1-3 2.938-1.437c2.867-1.265 2.867-1.265 4.062-2.563"/><path fill="#5d5b5c" d="M1264 447c2.154 2.622 3.4 4.644 4 8l-4 1 1-3a100 100 0 0 0-1-6"/></svg>